# Blender 4.2.3 LTS
# www.blender.org
mtllib Boat.mtl
o Cylinder
v -0.999519 -0.717055 -0.737035
v -0.999519 -0.717055 0.677178
v -0.999519 -1.009948 -0.029929
v 1.875316 -0.717055 0.677178
v -0.996594 -0.717055 0.677178
v 1.875316 -1.009948 -0.029929
v -1.706626 -0.717055 -0.029929
v -0.996594 -1.009948 -0.029929
v 1.875316 -0.717055 -0.737035
v -0.996594 -0.717055 -0.737035
v -0.996594 -0.717055 -0.734111
v -0.996594 -0.717055 0.674253
v -0.996594 -1.008737 -0.029929
v -0.996594 -0.019948 0.965929
v 1.875316 -0.019948 0.965929
v -0.996594 -0.019948 0.963004
v -0.996594 -0.019948 -1.022862
v -0.996594 -0.019948 -1.025787
v 1.875316 -0.019948 -1.025787
v -0.999519 -0.019948 -1.025787
v -0.999519 -0.019948 0.965929
v -1.995377 -0.019948 -0.029929
v -0.865828 0.191983 0.835163
v 1.744550 0.191983 0.835163
v -0.920190 0.191983 0.784506
v -0.922882 0.191983 -0.850048
v -0.865828 0.191983 -0.895021
v 1.744550 0.191983 -0.895021
v -0.999519 0.191983 -0.840856
v -0.999519 0.191983 0.780999
v -1.810446 0.191983 -0.029929
v -0.996594 0.394189 0.965929
v 1.875316 0.394189 0.965929
v -0.996594 0.394189 0.963004
v -0.996594 0.394189 -1.022862
v -0.996594 0.394189 -1.025787
v 1.875316 0.394189 -1.025787
v -0.999519 0.394189 -1.025787
v -0.999519 0.394189 0.965929
v -1.995377 0.394189 -0.029929
vn -0.0000 -0.3827 0.9239
vn -0.0000 -0.9239 0.3827
vn -1.0000 -0.0000 -0.0000
vn -0.0000 -0.9239 -0.3827
vn -0.0000 -0.3827 -0.9239
vn 1.0000 -0.0000 -0.0000
vn 0.3574 -0.8629 -0.3574
vn 0.6786 -0.2811 -0.6786
vn 0.3574 -0.8628 0.3574
vn 0.6786 -0.2811 0.6786
vn -0.3574 -0.8629 0.3574
vn -0.6786 -0.2811 0.6786
vn -0.3574 -0.8629 -0.3574
vn -0.6786 -0.2811 -0.6786
vn -0.7071 -0.0000 -0.7071
vn -0.0000 1.0000 -0.0000
vn 0.7071 -0.0000 -0.7071
vn -0.7071 -0.0000 0.7071
vn 0.7071 -0.0000 0.7071
vn -0.0000 -0.0000 -1.0000
vn -0.0000 -0.0000 1.0000
vn -0.0000 0.5430 -0.8397
vn 0.5207 0.6707 -0.5283
vn 0.4779 0.6690 0.5693
vn -0.0000 0.5430 0.8397
vn -0.8397 0.5430 -0.0000
vn 0.0585 0.6674 0.7424
vn 0.0053 0.6690 -0.7433
vn 0.5938 0.5430 -0.5938
vn 0.5938 0.5430 0.5938
vt 0.375000 1.000000
vt 0.375000 0.500000
vt 0.498232 0.500000
vt 0.498232 1.000000
vt 0.250000 1.000000
vt 0.250000 0.500000
vt 0.080294 0.080996
vt 0.010291 0.250000
vt 0.010000 0.250000
vt 0.080294 0.080294
vt 0.247600 0.010994
vt 0.247600 0.011696
vt 0.080294 0.419706
vt 0.080294 0.419004
vt 0.247600 0.488304
vt 0.247600 0.489006
vt 0.125000 1.000000
vt 0.125000 0.500000
vt 0.001768 1.000000
vt 0.001768 0.500000
vt 0.747600 0.010994
vt 0.580294 0.080294
vt 0.510000 0.250000
vt 0.580294 0.419706
vt 0.747600 0.489006
vt 0.625000 0.000000
vt 0.750000 0.250000
vt 0.748966 0.250000
vt 0.624483 0.001034
vt 0.750000 0.496464
vt 0.749265 0.496464
vt 0.250000 0.250000
vt 0.375000 0.000000
vt 0.375517 0.001034
vt 0.251034 0.250000
vt 0.250736 0.496464
vt 0.250000 0.496464
vt 0.125000 0.000000
vt 0.000000 0.250000
vt 0.000000 0.496464
vt 0.875000 0.000000
vt 1.000000 0.250000
vt 1.000000 0.496464
vt 0.125000 0.541183
vt 0.125000 0.524638
vt 0.125000 0.625000
vt 0.125000 0.725362
vt 0.125000 0.708816
vt 0.125000 0.732066
vt 0.125000 0.732066
vt 0.125000 0.517934
vt 0.125000 0.748250
vt 0.125000 0.747888
vt 0.125000 0.501750
vt 0.125000 0.502112
vt 0.125000 0.625000
s 0
f 5/1/1 4/2/1 15/3/1 14/4/1
f 4/2/2 5/1/2 8/5/2 6/6/2
f 12/7/3 13/8/3 8/9/3 5/10/3 14/11/3 16/12/3
f 10/13/3 8/9/3 13/8/3 11/14/3 17/15/3 18/16/3
f 6/6/4 8/5/4 10/17/4 9/18/4
f 9/18/5 10/17/5 18/19/5 19/20/5
f 15/21/6 4/22/6 6/23/6 9/24/6 19/25/6
f 3/26/7 1/27/7 11/28/7 13/29/7
f 11/28/8 1/27/8 20/30/8 17/31/8
f 2/32/9 3/33/9 13/34/9 12/35/9
f 2/32/10 12/35/10 16/36/10 21/37/10
f 3/38/11 2/32/11 7/39/11
f 22/40/12 7/39/12 2/32/12 21/37/12
f 3/41/13 7/42/13 1/27/13
f 20/30/14 1/27/14 7/42/14 22/43/14
f 20/30/15 22/43/15 40/43/15 38/30/15
f 26/44/16 29/45/16 31/46/16 30/47/16 25/48/16 23/49/16 24/50/16 28/51/16 27/51/16
f 17/31/17 20/30/17 38/30/17 35/31/17
f 18/16/3 17/15/3 35/15/3 36/16/3
f 22/40/18 21/37/18 39/37/18 40/40/18
f 21/37/19 16/36/19 34/36/19 39/37/19
f 19/20/20 18/19/20 36/19/20 37/20/20
f 15/21/6 19/25/6 37/25/6 33/21/6
f 14/4/21 15/3/21 33/3/21 32/4/21
f 16/12/3 14/11/3 32/11/3 34/12/3
f 24/50/22 23/49/22 32/52/22 33/52/22
f 23/49/23 25/48/23 34/53/23 32/52/23
f 26/44/24 27/51/24 36/54/24 35/55/24
f 27/51/25 28/51/25 37/54/25 36/54/25
f 28/51/26 24/50/26 33/52/26 37/54/26
f 29/45/27 26/44/27 35/55/27 38/54/27
f 25/48/28 30/47/28 39/52/28 34/53/28
f 30/47/29 31/46/29 40/56/29 39/52/29
f 31/46/30 29/45/30 38/54/30 40/56/30
