# Blender v2.81 (sub 16) OBJ File: 'Death.blend'
# www.blender.org
mtllib Death.mtl
o Cone
v -0.261219 -2.500000 -2.735415
v 0.261273 2.159835 -0.950864
v 1.663259 -2.500000 -1.764869
v 0.808650 2.500000 -0.499350
v 1.638004 -2.475013 1.634372
v 0.809383 2.500000 0.459067
v -0.311506 -2.500000 2.593836
v 0.244553 2.116014 0.915465
v -4.242436 -2.500000 0.001871
v -1.070021 0.824744 -0.003821
v -1.962636 -2.500000 1.700185
v -0.174175 2.500000 0.458044
v -0.110745 2.500000 -0.475120
v -2.454880 -2.500000 -1.682142
v -2.799326 -1.136675 0.001247
v -0.143735 0.203541 1.203720
v -0.855875 0.524327 0.904932
v 1.033146 0.011929 1.062094
v -0.982674 0.664331 -0.913217
v -0.115113 0.152195 -1.353460
v 1.020293 -0.000738 -1.146999
v 0.701020 -2.500000 -2.250142
v 0.534962 2.329918 -0.725107
v 0.185236 1.132094 -1.114280
v 1.279801 -1.247228 -1.321092
v 2.166393 -2.487506 -0.065249
v 0.809017 2.500000 -0.020141
v 1.274091 -1.230212 1.211326
v 0.663249 -2.487506 2.114104
v 0.526968 2.308007 0.687266
v -0.092375 -1.181107 1.813319
v -3.102536 -2.500000 0.851028
v 0.035189 2.308007 0.686755
v -3.520881 -1.818338 0.001559
v -1.358050 -2.500000 -2.208778
v -0.614925 1.665870 -0.147839
v -1.137071 -2.500000 2.147011
v -0.634480 1.665870 0.139851
v -1.424866 -0.986184 1.389650
v 0.075264 2.329918 -0.712992
v -3.348658 -2.500000 -0.840136
v -1.746230 -0.903107 -1.380386
v -0.142460 2.500000 -0.008538
v -1.798061 -0.807919 -0.840759
v -1.551938 -0.807919 0.850404
v -1.970284 -0.126257 0.000935
v -2.627103 -1.818338 -0.840447
v -2.380981 -1.818338 0.850716
v 0.163221 1.139231 1.015902
v -0.556128 1.555954 0.472345
v 0.875619 1.249184 0.655174
v 0.495602 0.079430 1.247903
v -0.496238 0.363393 1.045704
v -0.962948 0.674536 0.450555
v -0.582966 1.607178 -0.480568
v -0.054335 -1.208392 -1.965052
v 0.869741 1.243707 -0.720031
v 1.209547 0.005596 -0.042453
v 0.506160 0.042628 -1.374052
v -0.545523 0.408074 -1.124444
v -1.026348 0.744538 -0.458519
v 0.348953 2.500000 -0.487235
v 0.317604 2.500000 0.458556
v 0.333278 2.500000 -0.014340
v -0.938413 -1.055168 -1.769045
v 0.612733 -1.227810 -1.643072
v 1.473162 -1.238720 -0.054883
v -0.798679 -1.081681 1.696596
v 0.590858 -1.205659 1.512322
v -0.212549 1.322323 0.966468
v -0.221756 1.359791 -1.021152
v 0.519420 1.194207 0.835538
v 0.872680 1.246446 -0.032428
v 0.527489 1.187901 -0.917156
vt 0.900000 0.875000
vt 0.900000 1.000000
vt 0.800000 1.000000
vt 0.800000 0.875000
vt 0.700000 0.875000
vt 0.700000 1.000000
vt 0.600000 1.000000
vt 0.600000 0.875000
vt 0.500000 0.875000
vt 0.500000 1.000000
vt 0.400000 1.000000
vt 0.400000 0.875000
vt 0.065339 0.190000
vt 0.100606 0.298541
vt 0.043543 0.257082
vt 0.300000 0.750000
vt 0.300000 0.875000
vt 0.250000 0.875000
vt 0.050000 0.875000
vt 0.050000 1.000000
vt 0.000000 1.000000
vt 0.000000 0.875000
vt 0.750000 0.490000
vt 0.864127 0.407082
vt 0.978254 0.324164
vt 0.934661 0.190000
vt 0.891068 0.055836
vt 0.750000 0.055836
vt 0.608932 0.055836
vt 0.587135 0.122918
vt 0.565339 0.190000
vt 0.543543 0.257082
vt 0.521746 0.324164
vt 0.578810 0.365623
vt 0.635873 0.407082
vt 0.692937 0.448541
vt 0.350000 0.875000
vt 0.350000 1.000000
vt 0.300000 1.000000
vt 0.200000 1.000000
vt 0.150000 1.000000
vt 0.150000 0.875000
vt 0.478254 0.324164
vt 0.364127 0.407082
vt 0.307063 0.365623
vt 0.200000 0.750000
vt 0.200000 0.875000
vt 0.150000 0.625000
vt 0.300000 0.500000
vt 0.250000 0.750000
vt 0.250000 0.625000
vt 0.200000 0.500000
vt 0.200000 0.625000
vt 0.150000 0.500000
vt 0.250000 0.500000
vt 0.500000 0.625000
vt 0.500000 0.750000
vt 0.400000 0.750000
vt 0.400000 0.625000
vt 0.350000 0.625000
vt 0.350000 0.750000
vt 0.300000 0.625000
vt 0.700000 0.625000
vt 0.700000 0.750000
vt 0.600000 0.750000
vt 0.600000 0.625000
vt 0.900000 0.625000
vt 0.900000 0.750000
vt 0.800000 0.750000
vt 0.800000 0.625000
vt 0.050000 0.625000
vt 0.050000 0.750000
vt 0.000000 0.750000
vt 0.000000 0.625000
vt 0.100000 0.500000
vt 0.150000 0.750000
vt 0.100000 0.625000
vt 0.267634 0.244271
vt 0.135873 0.407082
vt 0.108932 0.055836
vt 0.250000 0.055836
vt 0.087135 0.122918
vt 0.228204 0.122918
vt 0.391068 0.055836
vt 0.434661 0.190000
vt 0.100000 0.750000
vt 0.050000 0.500000
vt 0.000000 0.500000
vt 0.900000 0.500000
vt 0.800000 0.500000
vt 1.000000 0.500000
vt 1.000000 0.625000
vt 1.000000 0.750000
vt 0.700000 0.500000
vt 0.600000 0.500000
vt 0.350000 0.500000
vt 0.400000 0.500000
vt 0.500000 0.500000
vt 0.192937 0.448541
vt 0.250000 0.490000
vt 0.100000 0.875000
vt 0.100000 1.000000
vt 0.250000 1.000000
vt 0.078810 0.365623
vt 0.021746 0.324164
vt 1.000000 0.875000
vt 1.000000 1.000000
vn 0.5195 0.1562 -0.8401
vn 0.9987 0.0516 -0.0030
vn 0.5152 0.0796 0.8534
vn -0.8644 0.4994 -0.0588
vn -0.8598 0.3887 0.3311
vn -0.3220 0.2740 -0.9062
vn 0.0026 -1.0000 0.0015
vn -0.6534 0.3179 0.6870
vn -0.8791 0.4477 -0.1634
vn -0.0155 0.8076 -0.5896
vn -0.6418 0.5264 -0.5577
vn -0.5774 0.4740 0.6647
vn -0.5550 0.5872 -0.5892
vn -0.5048 0.5347 0.6777
vn 0.2149 0.3145 0.9246
vn -0.2842 0.4157 0.8639
vn -0.8668 0.3753 0.3283
vn 0.9670 0.2046 0.1519
vn 0.4210 0.2163 -0.8809
vn -0.1596 0.4169 -0.8949
vn -0.8906 0.4256 -0.1606
vn 0.0000 1.0000 0.0000
vn -0.0007 0.7656 0.6433
vn -0.8661 0.4715 -0.1663
vn -0.2773 0.4410 -0.8536
vn -0.3828 0.3504 -0.8548
vn -0.2773 0.4224 -0.8630
vn 0.4079 0.4147 -0.8134
vn 0.4074 0.4175 -0.8122
vn 0.2461 0.3217 -0.9143
vn 0.8860 0.4111 0.2144
vn 0.8835 0.4185 -0.2104
vn 0.9641 0.2142 -0.1569
vn -0.8397 0.4249 0.3383
vn -0.4150 0.3427 0.8428
vn -0.2846 0.4408 0.8513
vn -0.1326 0.4131 0.9010
vn 0.3901 0.4149 0.8220
vn 0.3923 0.4031 0.8268
vn 0.3759 0.1982 0.9052
vn -0.5354 0.5102 0.6731
vn -0.5952 0.5606 -0.5758
vn -0.8714 0.4619 -0.1652
vn -0.5110 0.3515 0.7844
vn -0.1836 0.1931 0.9638
vn -0.2942 0.2291 0.9279
vn -0.2247 0.2400 -0.9444
vn -0.4794 0.4035 -0.7794
vn -0.6491 0.3790 -0.6596
vn -0.8750 0.3589 0.3249
vn -0.8822 0.4670 -0.0600
vn 0.1484 0.2557 0.9553
vn 0.3624 0.3249 0.8735
vn 0.4956 0.1372 0.8576
vn 0.9734 0.2091 0.0932
vn 0.9722 0.2092 -0.1053
vn 0.9987 0.0499 -0.0029
vn 0.4142 0.3354 -0.8461
vn 0.1881 0.2799 -0.9414
vn 0.5327 0.1168 -0.8382
usemtl None
s off
f 74/1/1 23/2/1 4/3/1 57/4/1
f 73/5/2 27/6/2 6/7/2 51/8/2
f 72/9/3 30/10/3 8/11/3 49/12/3
f 12/13/4 43/14/4 38/15/4
f 17/16/5 50/17/5 54/18/5
f 71/19/6 40/20/6 2/21/6 24/22/6
f 1/23/7 22/24/7 3/25/7 26/26/7 5/27/7 29/28/7 7/29/7 37/30/7 11/31/7 32/32/7 9/33/7 41/34/7 14/35/7 35/36/7
f 70/37/8 33/38/8 12/39/8 50/17/8
f 10/40/9 36/41/9 61/42/9
f 4/43/10 23/44/10 62/45/10
f 15/46/11 46/47/11 47/48/11
f 11/49/12 45/50/12 48/51/12
f 9/52/13 34/53/13 41/54/13
f 9/52/14 32/55/14 34/53/14
f 69/56/15 52/57/15 16/58/15 31/59/15
f 68/60/16 53/61/16 17/16/16 39/62/16
f 11/49/17 39/62/17 45/50/17
f 67/63/18 58/64/18 18/65/18 28/66/18
f 66/67/19 59/68/19 21/69/19 25/70/19
f 65/71/20 60/72/20 20/73/20 56/74/20
f 14/75/21 44/76/21 42/77/21
f 64/78/22 62/45/22 13/79/22 43/14/22
f 8/80/23 30/81/23 33/82/23
f 33/82/23 63/83/23 12/13/23
f 33/82/23 30/81/23 63/83/23
f 30/81/23 6/84/23 63/83/23
f 63/83/22 64/78/22 43/14/22 12/13/22
f 6/84/22 27/85/22 64/78/22 63/83/22
f 27/85/22 4/43/22 62/45/22 64/78/22
f 42/77/24 61/42/24 19/86/24
f 42/77/24 44/76/24 61/42/24
f 44/76/24 10/40/24 61/42/24
f 35/87/25 65/71/25 56/74/25 1/88/25
f 14/75/26 42/77/26 65/71/26 35/87/26
f 42/77/27 19/86/27 60/72/27 65/71/27
f 22/89/28 66/67/28 25/70/28 3/90/28
f 1/91/29 56/92/29 66/67/29 22/89/29
f 56/92/30 20/93/30 59/68/30 66/67/30
f 26/94/31 67/63/31 28/66/31 5/95/31
f 3/90/32 25/70/32 67/63/32 26/94/32
f 25/70/33 21/69/33 58/64/33 67/63/33
f 45/50/34 54/18/34 10/40/34
f 45/50/34 39/62/34 54/18/34
f 39/62/34 17/16/34 54/18/34
f 37/96/35 68/60/35 39/62/35 11/49/35
f 7/97/36 31/59/36 68/60/36 37/96/36
f 31/59/37 16/58/37 53/61/37 68/60/37
f 29/98/38 69/56/38 31/59/38 7/97/38
f 5/95/39 28/66/39 69/56/39 29/98/39
f 28/66/40 18/65/40 52/57/40 69/56/40
f 34/53/14 48/51/14 15/46/14
f 34/53/14 32/55/14 48/51/14
f 32/55/14 11/49/14 48/51/14
f 41/54/13 47/48/13 14/75/13
f 41/54/13 34/53/13 47/48/13
f 34/53/13 15/46/13 47/48/13
f 48/51/12 46/47/12 15/46/12
f 48/51/12 45/50/12 46/47/12
f 45/50/41 10/40/41 46/47/41
f 47/48/11 44/76/11 14/75/11
f 47/48/11 46/47/11 44/76/11
f 46/47/42 10/40/42 44/76/42
f 62/45/10 40/99/10 13/79/10
f 62/45/10 23/44/10 40/99/10
f 23/44/10 2/100/10 40/99/10
f 61/42/9 55/101/9 19/86/9
f 61/42/9 36/41/9 55/101/9
f 36/41/43 13/102/43 55/101/43
f 53/61/44 70/37/44 50/17/44 17/16/44
f 16/58/45 49/12/45 70/37/45 53/61/45
f 49/12/46 8/11/46 33/38/46 70/37/46
f 60/72/47 71/19/47 24/22/47 20/73/47
f 19/86/48 55/101/48 71/19/48 60/72/48
f 55/101/49 13/102/49 40/20/49 71/19/49
f 54/18/5 38/103/5 10/40/5
f 54/18/5 50/17/5 38/103/5
f 50/17/50 12/39/50 38/103/50
f 38/15/51 36/104/51 10/105/51
f 38/15/4 43/14/4 36/104/4
f 43/14/4 13/79/4 36/104/4
f 52/57/52 72/9/52 49/12/52 16/58/52
f 18/65/53 51/8/53 72/9/53 52/57/53
f 51/8/54 6/7/54 30/10/54 72/9/54
f 58/64/55 73/5/55 51/8/55 18/65/55
f 21/69/56 57/4/56 73/5/56 58/64/56
f 57/4/57 4/3/57 27/6/57 73/5/57
f 59/68/58 74/1/58 57/4/58 21/69/58
f 20/93/59 24/106/59 74/1/59 59/68/59
f 24/106/60 2/107/60 23/2/60 74/1/60
o Icosphere
v 0.687439 2.260000 0.000000
v 1.085400 2.403814 0.425953
v 0.171473 2.216387 0.546927
v -1.674149 1.529691 0.000000
v 0.171473 2.216387 -0.546927
v 1.085400 2.403814 -0.425953
v 1.188734 3.300096 0.925860
v -0.089751 3.433453 0.332871
v -0.089751 3.433453 -0.332871
v 1.188734 3.300096 -0.925860
v 1.376958 4.230214 0.000000
v 1.085400 2.403814 -0.425953
v 1.085400 2.403814 0.425953
v 1.188734 3.300096 0.925860
v 1.188734 3.300096 -0.925860
v 1.376958 4.230214 0.000000
v 1.081576 2.404393 0.425953
v 1.081576 2.404393 -0.425953
v 1.184910 3.300675 0.925860
v 1.184910 3.300675 -0.925860
v 1.373134 4.230793 0.000000
v 1.316926 2.348520 0.132425
v 1.316926 2.348520 -0.132425
v 1.553787 3.244802 0.679891
v 1.553787 3.244802 -0.679891
v 1.742011 3.926405 0.000000
v 0.429456 2.352611 0.314513
v 0.886419 2.331907 0.212976
v 0.628437 2.424518 0.527489
v 1.085400 2.403814 0.000000
v 0.886419 2.331907 -0.212976
v -0.493355 2.130289 0.000000
v -0.830139 2.352485 0.301730
v 0.429456 2.352611 -0.314513
v -0.830139 2.352485 -0.301730
v 0.628437 2.424518 -0.527489
v 0.680104 2.872659 0.777443
v 1.137067 2.851955 0.675906
v -0.929553 2.815662 0.220267
v 0.040861 2.824920 0.439899
v 0.040861 2.824920 -0.439899
v -0.929553 2.815662 -0.220267
v 1.137067 2.851955 -0.675906
v 0.680104 2.872659 -0.777443
v 0.549491 3.481193 0.528959
v -0.089751 3.662289 0.000000
v 0.549491 3.481193 -0.528959
v 0.643603 3.946251 0.207485
v 0.643603 3.946251 -0.207485
v 1.282846 3.765155 -0.462930
v 1.282846 3.765155 0.462930
v 1.085400 2.403814 0.000000
v 1.137067 2.851955 0.675906
v 1.137067 2.851955 -0.675906
v 1.282846 3.765155 -0.462930
v 1.282846 3.765155 0.462930
v 1.085400 2.403814 -0.425953
v 1.085400 2.403814 0.425953
v 1.188734 3.300096 0.925860
v 1.188734 3.300096 -0.925860
v 1.376958 4.230214 0.000000
v 1.081576 2.404393 0.000000
v 1.133243 2.852534 0.675906
v 1.133243 2.852534 -0.675906
v 1.279022 3.765734 -0.462930
v 1.279022 3.765734 0.462930
v 1.375046 4.230504 0.000000
v 1.186822 3.300386 -0.925860
v 1.083488 2.404104 0.425953
v 1.186822 3.300386 0.925860
v 1.083488 2.404104 -0.425953
v 1.316926 2.348520 0.000000
v 1.435356 2.796661 0.406158
v 1.435356 2.796661 -0.406158
v 1.647899 3.585603 -0.339945
v 1.647899 3.585603 0.339945
v 1.369349 3.272739 0.802875
v 1.557572 4.078599 0.000000
v 1.369349 3.272739 -0.802875
v 1.199251 2.376457 -0.279189
v 1.199251 2.376457 0.279189
v 1.284300 2.824598 0.541032
v 1.463460 3.675669 -0.401438
v 1.199251 2.376457 0.000000
v 1.284300 2.824598 -0.541032
v 1.083488 2.404104 0.000000
v 1.135155 2.852245 -0.675906
v 1.280934 3.765445 0.462930
v 1.135155 2.852245 0.675906
v 1.463460 3.675669 0.401438
v 1.282846 3.765155 0.462930
v 1.282846 3.765155 -0.462930
v 1.137067 2.851955 -0.675906
v 1.137067 2.851955 0.675906
v 1.085400 2.403814 0.000000
v 1.280934 3.765445 -0.462930
vt 0.818181 0.000000
vt 0.772726 0.078731
vt 0.863635 0.078731
vt 0.727272 0.157461
vt 0.681818 0.078731
vt 0.636363 0.157461
vt 0.090909 0.000000
vt 0.045454 0.078731
vt 0.136363 0.078731
vt 0.272727 0.000000
vt 0.227273 0.078731
vt 0.318182 0.078731
vt 0.454545 0.000000
vt 0.409090 0.078731
vt 0.500000 0.078731
vt 0.909090 0.157461
vt 0.818181 0.157461
vt 0.863635 0.236191
vt 0.181818 0.157461
vt 0.090909 0.157461
vt 0.136363 0.236191
vt 0.363636 0.157461
vt 0.272727 0.157461
vt 0.318182 0.236191
vt 0.545454 0.157461
vt 0.454545 0.157461
vt 0.500000 0.236191
vt 0.954545 0.236191
vt 0.227273 0.236191
vt 0.409090 0.236191
vt 0.590908 0.393651
vt 0.727272 0.472382
vt 0.727272 0.472382
vt 0.590908 0.393651
vt 1.000000 0.314921
vt 0.909091 0.314921
vt 0.954545 0.393651
vt 0.272727 0.314921
vt 0.181818 0.314921
vt 0.227273 0.393651
vt 0.454545 0.314921
vt 0.363636 0.314921
vt 0.409090 0.393651
vt 0.636363 0.157461
vt 0.727272 0.157461
vt 0.772726 0.236191
vt 0.818181 0.314921
vt 0.818181 0.314921
vt 0.772726 0.236191
vt 0.500000 0.236191
vt 0.545454 0.157461
vt 0.590908 0.393651
vt 0.454545 0.314921
vt 0.590908 0.393651
vt 0.772726 0.393651
vt 0.727272 0.472382
vt 0.727272 0.472382
vt 0.772726 0.393651
vt 0.772726 0.393651
vt 0.818181 0.314921
vt 0.818181 0.314921
vt 0.772726 0.393651
vt 0.772726 0.236191
vt 0.727272 0.157461
vt 0.727272 0.157461
vt 0.772726 0.236191
vt 0.772726 0.393651
vt 0.818181 0.314921
vt 0.818181 0.314921
vt 0.772726 0.393651
vt 0.500000 0.236191
vt 0.454545 0.314921
vt 0.454545 0.314921
vt 0.500000 0.236191
vt 0.636363 0.157461
vt 0.545454 0.157461
vt 0.545454 0.157461
vt 0.636363 0.157461
vt 0.772726 0.236191
vt 0.727272 0.157461
vt 0.636363 0.157461
vt 0.545454 0.157461
vt 0.500000 0.236191
vt 0.454545 0.314921
vt 0.590908 0.393651
vt 0.727272 0.472382
vt 0.500000 0.236191
vt 0.454545 0.314921
vt 0.636363 0.157461
vt 0.545454 0.157461
vt 0.590908 0.393651
vt 0.727272 0.472382
vt 0.772726 0.236191
vt 0.727272 0.157461
vt 0.727272 0.157461
vt 0.636363 0.157461
vt 0.545454 0.157461
vt 0.500000 0.236191
vt 0.454545 0.314921
vt 0.727272 0.472382
vt 0.772726 0.393651
vt 0.818181 0.314921
vt 0.772726 0.236191
vt 0.590908 0.393651
vt 0.318182 0.393651
vt 0.363636 0.472382
vt 0.136363 0.393651
vt 0.181818 0.472382
vt 0.090909 0.314921
vt 0.863635 0.393651
vt 0.909090 0.472382
vt 0.045454 0.236191
vt 0.000000 0.157461
vt 0.590909 0.078731
vt 0.636363 0.000000
vn 0.0235 -0.9536 0.3001
vn 0.3399 -0.9405 0.0000
vn 0.1020 -0.9285 0.3571
vn 0.1020 -0.9285 -0.3571
vn 0.0235 -0.9536 -0.3001
vn 0.2599 -0.4931 0.8303
vn -0.3996 0.0749 0.9136
vn -0.2202 0.1229 -0.9677
vn 0.1671 -0.4949 -0.8527
vn -0.4694 0.0543 0.8813
vn -0.8654 0.5011 0.0000
vn -0.4694 0.0543 -0.8813
vn -0.1047 -0.6909 0.7153
vn -0.2777 0.5837 0.7631
vn -0.4323 0.7431 -0.5108
vn -0.2148 0.7105 -0.6701
vn 0.0000 0.0000 1.0000
vn 0.5082 0.5401 0.6708
vn 0.0726 0.4794 -0.8746
vn -0.1046 -0.6909 -0.7153
vn 0.0726 0.4794 0.8746
vn 0.1497 0.9887 0.0000
vn 0.9657 -0.2597 0.0000
vn 0.4594 -0.5301 -0.7126
vn -0.2310 -0.9730 0.0000
vn 0.4785 0.5562 -0.6794
vn 0.5677 -0.5134 0.6435
vn 0.4594 -0.5301 0.7126
vn 0.4788 -0.4893 0.7290
vn 0.5922 -0.4658 0.6575
vn 0.5082 0.5401 -0.6708
vn 0.5076 0.5502 -0.6630
vn 0.4820 0.5636 -0.6709
vn 0.5677 -0.5134 -0.6435
vn 0.5922 -0.4658 -0.6575
vn 0.4788 -0.4893 -0.7290
vn 0.1498 0.9887 0.0000
vn -0.1047 -0.6909 -0.7153
vn 0.4785 0.5562 0.6794
vn 0.4820 0.5636 0.6709
vn 0.5076 0.5502 0.6630
vn -0.0777 0.7112 -0.6987
vn -0.1538 0.5827 -0.7980
vn -0.2777 0.5837 -0.7631
vn -0.3611 0.9325 0.0000
vn -0.4323 0.7431 0.5108
vn -0.0777 0.7112 0.6987
vn -0.1538 0.5827 0.7980
vn -0.2148 0.7105 0.6701
vn -0.1046 -0.6909 0.7153
vn -0.4587 0.2498 -0.8528
vn -0.4669 0.2466 -0.8493
vn -0.2987 0.1028 -0.9488
vn -0.5635 0.6807 -0.4680
vn -0.7100 0.7042 0.0000
vn -0.5635 0.6807 0.4680
vn -0.2987 0.1028 0.9488
vn -0.4669 0.2466 0.8493
vn -0.4587 0.2498 0.8528
vn 0.2599 -0.4931 -0.8303
vn -0.3996 0.0749 -0.9136
vn -0.2202 0.1229 0.9677
vn 0.1671 -0.4949 0.8527
vn 0.4106 -0.9086 0.0768
vn 0.0052 -0.8652 0.5014
vn -0.0059 -0.8083 -0.5887
vn 0.2957 -0.5813 -0.7581
vn 0.2957 -0.5813 0.7581
vn -0.0059 -0.8083 0.5887
vn 0.0052 -0.8652 -0.5014
vn 0.4106 -0.9086 -0.0768
usemtl None
s off
f 75/108/61 102/109/61 101/110/61
f 87/111/62 102/112/62 104/113/62
f 75/114/63 101/115/63 106/116/63
f 75/117/64 106/118/64 108/119/64
f 75/120/65 108/121/65 105/122/65
f 77/123/66 103/124/66 111/125/66
f 78/126/67 107/127/67 113/128/67
f 79/129/68 109/130/68 115/131/68
f 86/132/69 110/133/69 117/134/69
f 77/123/70 111/125/70 114/135/70
f 78/126/71 113/128/71 116/136/71
f 79/129/72 115/131/72 118/137/72
f 170/138/73 141/139/73 95/140/73 139/141/73
f 82/142/74 119/143/74 122/144/74
f 83/145/75 120/146/75 123/147/75
f 89/148/76 121/149/76 124/150/76
f 169/151/77 132/152/77 87/111/77 104/113/77
f 168/153/77 133/154/77 88/155/77 112/156/77
f 167/157/77 131/158/77 86/132/77 117/134/77
f 166/159/77 134/160/77 89/148/77 124/161/77
f 165/162/77 135/163/77 90/164/77 125/165/77
f 164/166/78 151/167/78 98/168/78 150/169/78
f 163/170/79 143/171/79 91/172/79 137/173/79
f 162/174/80 144/175/80 93/176/80 140/177/80
f 161/178/81 142/179/81 94/180/81 138/181/81
f 160/182/82 145/183/82 92/184/82 136/185/82
f 98/168/83 147/186/83 96/187/83 146/188/83 97/189/83 148/190/83 99/191/83 149/192/83 100/193/83 150/169/83
f 159/194/84 153/195/84 99/191/84 148/190/84
f 158/196/85 154/197/85 97/189/85 146/188/85
f 157/198/86 152/199/86 100/193/86 149/192/86
f 156/200/87 155/201/87 96/187/87 147/186/87
f 151/167/88 156/200/88 147/186/88 98/168/88
f 93/176/89 137/173/89 156/200/89 151/167/89
f 137/173/90 91/172/90 155/201/90 156/200/90
f 153/195/91 157/198/91 149/192/91 99/191/91
f 94/180/92 139/141/92 157/198/92 153/195/92
f 139/141/93 95/140/93 152/199/93 157/198/93
f 155/201/85 158/196/85 146/188/85 96/187/85
f 91/172/85 136/185/85 158/196/85 155/201/85
f 136/185/85 92/184/85 154/197/85 158/196/85
f 154/197/94 159/194/94 148/190/94 97/189/94
f 92/184/95 138/181/95 159/194/95 154/197/95
f 138/181/96 94/180/96 153/195/96 159/194/96
f 143/171/82 160/182/82 136/185/82 91/172/82
f 76/202/97 126/203/97 160/182/97 143/171/97
f 126/203/97 80/204/97 145/183/97 160/182/97
f 145/183/81 161/178/81 138/181/81 92/184/81
f 80/204/81 128/205/81 161/178/81 145/183/81
f 128/205/81 84/206/81 142/179/81 161/178/81
f 141/139/98 162/174/98 140/177/98 95/140/98
f 85/207/80 130/208/80 162/174/80 141/139/80
f 130/208/80 81/209/80 144/175/80 162/174/80
f 144/175/79 163/170/79 137/173/79 93/176/79
f 81/209/79 127/210/79 163/170/79 144/175/79
f 127/210/79 76/202/79 143/171/79 163/170/79
f 152/199/99 164/166/99 150/169/99 100/193/99
f 95/140/100 140/177/100 164/166/100 152/199/100
f 140/177/101 93/176/101 151/167/101 164/166/101
f 133/154/77 165/162/77 125/165/77 88/155/77
f 81/209/77 130/208/77 165/162/77 133/154/77
f 130/208/77 85/207/77 135/163/77 165/162/77
f 135/163/77 166/159/77 124/161/77 90/164/77
f 85/207/77 129/211/77 166/159/77 135/163/77
f 129/211/77 84/206/77 134/160/77 166/159/77
f 134/160/77 167/157/77 117/134/77 89/148/77
f 84/206/77 128/205/77 167/157/77 134/160/77
f 128/205/77 80/204/77 131/158/77 167/157/77
f 132/152/77 168/153/77 112/156/77 87/111/77
f 76/202/77 127/210/77 168/153/77 132/152/77
f 127/210/77 81/209/77 133/154/77 168/153/77
f 131/158/77 169/151/77 104/113/77 86/132/77
f 80/204/77 126/203/77 169/151/77 131/158/77
f 126/203/77 76/202/77 132/152/77 169/151/77
f 124/150/102 123/212/102 90/213/102
f 124/150/103 121/149/103 123/212/103
f 121/149/104 83/145/104 123/212/104
f 123/147/105 122/214/105 90/215/105
f 123/147/105 120/146/105 122/214/105
f 120/146/106 82/216/106 122/214/106
f 122/144/107 125/217/107 90/218/107
f 122/144/108 119/143/108 125/217/108
f 119/143/109 88/155/109 125/217/109
f 142/179/110 170/138/110 139/141/110 94/180/110
f 84/206/110 129/211/110 170/138/110 142/179/110
f 129/211/110 85/207/110 141/139/110 170/138/110
f 118/137/111 121/149/111 89/148/111
f 118/137/112 115/131/112 121/149/112
f 115/131/113 83/145/113 121/149/113
f 116/136/114 120/146/114 83/145/114
f 116/136/115 113/128/115 120/146/115
f 113/128/116 82/216/116 120/146/116
f 114/135/117 119/143/117 82/142/117
f 114/135/118 111/125/118 119/143/118
f 111/125/119 88/155/119 119/143/119
f 117/134/69 118/137/69 89/148/69
f 117/134/69 110/133/69 118/137/69
f 110/133/120 79/129/120 118/137/120
f 115/131/68 116/136/68 83/145/68
f 115/131/68 109/130/68 116/136/68
f 109/130/121 78/126/121 116/136/121
f 113/128/122 114/219/122 82/216/122
f 113/128/122 107/127/122 114/219/122
f 107/127/122 77/220/122 114/219/122
f 111/125/123 112/156/123 88/155/123
f 111/125/123 103/124/123 112/156/123
f 103/124/123 87/111/123 112/156/123
f 105/122/65 110/133/65 86/132/65
f 105/122/65 108/121/65 110/133/65
f 108/121/124 79/129/124 110/133/124
f 108/119/125 109/130/125 79/129/125
f 108/119/126 106/118/126 109/130/126
f 106/118/127 78/126/127 109/130/127
f 106/116/128 107/127/128 78/126/128
f 106/116/129 101/115/129 107/127/129
f 101/115/130 77/220/130 107/127/130
f 104/113/62 105/221/62 86/132/62
f 104/113/62 102/112/62 105/221/62
f 102/112/62 75/222/62 105/221/62
f 101/110/131 103/124/131 77/123/131
f 101/110/61 102/109/61 103/124/61
f 102/109/61 87/111/61 103/124/61
