{
	"asset":{
		"generator":"Khronos glTF Blender I/O v4.2.70",
		"version":"2.0"
	},
	"scene":0,
	"scenes":[
		{
			"extras":{
				"M3":{},
				"uuid":"764a0d87-1840-45b7-8f93-296173145274",
				"assets reported":{},
				"GodotPipelineProps":{
					"export_UI":1,
					"collision_UI":1,
					"display_wire":0,
					"path_UI":1,
					"set_path":"",
					"global_UI":1,
					"save_path":"//..\\..\\Godot_Projects\\The-Fields\\blender-assets\\tree_.gltf",
					"discard_mesh":1,
					"body_types":0,
					"collision_margin":10.0,
					"col_types":4
				}
			},
			"name":"Scene",
			"nodes":[
				0,
				1,
				2
			]
		}
	],
	"nodes":[
		{
			"mesh":0,
			"name":"Cylinder",
			"scale":[
				-1.532725214958191,
				-6.401914119720459,
				-1.532725214958191
			],
			"translation":[
				-0.2330063134431839,
				6.010651588439941,
				-0.04965684562921524
			]
		},
		{
			"mesh":1,
			"name":"Icosphere",
			"scale":[
				5.901326656341553,
				5.901326656341553,
				5.901326656341553
			],
			"translation":[
				0,
				15.408585548400879,
				0
			]
		},
		{
			"extras":{
				"collision":"simple-d"
			},
			"mesh":2,
			"name":"Cylinder.001",
			"scale":[
				-2.814512252807617,
				-12.680074691772461,
				-3.001204013824463
			]
		}
	],
	"materials":[
		{
			"doubleSided":true,
			"name":"Material",
			"pbrMetallicRoughness":{
				"baseColorFactor":[
					0.1811351180076599,
					0.06510728597640991,
					0.020274121314287186,
					1
				],
				"metallicFactor":0
			}
		},
		{
			"doubleSided":true,
			"name":"Material.001",
			"pbrMetallicRoughness":{
				"baseColorFactor":[
					0.02403603494167328,
					0.8001105785369873,
					0.014031851664185524,
					1
				],
				"metallicFactor":0,
				"roughnessFactor":0.696891188621521
			}
		}
	],
	"meshes":[
		{
			"name":"Cylinder",
			"primitives":[
				{
					"attributes":{
						"POSITION":0,
						"NORMAL":1,
						"TEXCOORD_0":2
					},
					"indices":3,
					"material":0
				}
			]
		},
		{
			"name":"Icosphere",
			"primitives":[
				{
					"attributes":{
						"POSITION":4,
						"NORMAL":5
					},
					"indices":6,
					"material":1
				}
			]
		},
		{
			"name":"Cylinder.001",
			"primitives":[
				{
					"attributes":{
						"POSITION":7,
						"NORMAL":8,
						"TEXCOORD_0":9
					},
					"indices":10
				}
			]
		}
	],
	"accessors":[
		{
			"bufferView":0,
			"componentType":5126,
			"count":780,
			"max":[
				2.3218636512756348,
				1.0295863151550293,
				2.170822858810425
			],
			"min":[
				-2.3218636512756348,
				-1.0295863151550293,
				-2.170822858810425
			],
			"type":"VEC3"
		},
		{
			"bufferView":1,
			"componentType":5126,
			"count":780,
			"type":"VEC3"
		},
		{
			"bufferView":2,
			"componentType":5126,
			"count":780,
			"type":"VEC2"
		},
		{
			"bufferView":3,
			"componentType":5123,
			"count":1308,
			"type":"SCALAR"
		},
		{
			"bufferView":4,
			"componentType":5126,
			"count":178920,
			"max":[
				1.3190172910690308,
				1.3855174779891968,
				1.3873343467712402
			],
			"min":[
				-1.3184616565704346,
				-1.3799790143966675,
				-1.369614601135254
			],
			"type":"VEC3"
		},
		{
			"bufferView":5,
			"componentType":5126,
			"count":178920,
			"type":"VEC3"
		},
		{
			"bufferView":6,
			"componentType":5125,
			"count":178920,
			"type":"SCALAR"
		},
		{
			"bufferView":7,
			"componentType":5126,
			"count":192,
			"max":[
				1,
				1,
				1
			],
			"min":[
				-1,
				-1,
				-1
			],
			"type":"VEC3"
		},
		{
			"bufferView":8,
			"componentType":5126,
			"count":192,
			"type":"VEC3"
		},
		{
			"bufferView":9,
			"componentType":5126,
			"count":192,
			"type":"VEC2"
		},
		{
			"bufferView":10,
			"componentType":5123,
			"count":372,
			"type":"SCALAR"
		}
	],
	"bufferViews":[
		{
			"buffer":0,
			"byteLength":9360,
			"byteOffset":0,
			"target":34962
		},
		{
			"buffer":0,
			"byteLength":9360,
			"byteOffset":9360,
			"target":34962
		},
		{
			"buffer":0,
			"byteLength":6240,
			"byteOffset":18720,
			"target":34962
		},
		{
			"buffer":0,
			"byteLength":2616,
			"byteOffset":24960,
			"target":34963
		},
		{
			"buffer":0,
			"byteLength":2147040,
			"byteOffset":27576,
			"target":34962
		},
		{
			"buffer":0,
			"byteLength":2147040,
			"byteOffset":2174616,
			"target":34962
		},
		{
			"buffer":0,
			"byteLength":715680,
			"byteOffset":4321656,
			"target":34963
		},
		{
			"buffer":0,
			"byteLength":2304,
			"byteOffset":5037336,
			"target":34962
		},
		{
			"buffer":0,
			"byteLength":2304,
			"byteOffset":5039640,
			"target":34962
		},
		{
			"buffer":0,
			"byteLength":1536,
			"byteOffset":5041944,
			"target":34962
		},
		{
			"buffer":0,
			"byteLength":744,
			"byteOffset":5043480,
			"target":34963
		}
	],
	"buffers":[
		{
			"byteLength":5044224,
			"uri":"tree_.bin"
		}
	]
}
