# Blender v2.81 (sub 16) OBJ File: 'Balloon.blend'
# www.blender.org
mtllib Balloon.mtl
o Sphere
v 0.000000 2.282687 -0.382683
v 0.000000 2.065914 -0.707107
v 0.000000 1.741491 -0.923880
v -0.000000 0.674624 -0.653114
v -0.000000 0.210034 -0.423888
v 0.114671 2.339593 -0.157831
v 0.224936 2.282687 -0.309597
v 0.415627 2.065914 -0.572061
v 0.543043 1.741491 -0.747434
v 0.576491 1.553898 -0.793472
v 0.538138 1.190456 -0.740683
v 0.383891 0.674624 -0.528380
v 0.325537 0.404516 -0.448063
v 0.249155 0.210034 -0.342932
v 0.134842 0.080086 -0.185594
v 0.068742 0.045973 -0.094615
v 0.185542 2.339593 -0.060286
v 0.363954 2.282687 -0.118255
v 0.672499 2.065914 -0.218508
v 0.878662 1.741491 -0.285494
v 0.932782 1.553898 -0.303079
v 0.870726 1.190456 -0.282916
v 0.621148 0.674624 -0.201823
v 0.526730 0.404516 -0.171145
v 0.403141 0.210034 -0.130988
v 0.218179 0.080086 -0.070890
v 0.111226 0.045973 -0.036139
v 0.185542 2.339593 0.060287
v 0.363954 2.282687 0.118256
v 0.672499 2.065914 0.218508
v 0.878662 1.741491 0.285495
v 0.932782 1.553898 0.303080
v 0.870726 1.190456 0.282916
v 0.621148 0.674624 0.201824
v 0.526730 0.404516 0.171145
v 0.403141 0.210034 0.130989
v 0.218179 0.080086 0.070891
v 0.111226 0.045973 0.036140
v 0.114671 2.339593 0.157832
v 0.224936 2.282687 0.309598
v 0.415627 2.065914 0.572062
v 0.543043 1.741491 0.747435
v 0.576491 1.553898 0.793472
v 0.538138 1.190456 0.740684
v 0.383891 0.674624 0.528381
v 0.325537 0.404516 0.448063
v 0.249155 0.210034 0.342933
v 0.134842 0.080086 0.185594
v 0.068742 0.045973 0.094615
v 0.000000 2.339593 0.195091
v 0.000000 2.282687 0.382684
v 0.000000 2.065914 0.707107
v 0.000000 1.741491 0.923880
v 0.000000 1.553898 0.980786
v 0.000000 1.190456 0.915535
v 0.000000 0.674624 0.653114
v 0.000000 0.404516 0.553837
v 0.000000 0.210034 0.423888
v 0.000000 0.080086 0.229407
v -0.000000 0.045973 0.116951
v -0.000000 0.034454 0.000000
v -0.000000 2.358808 0.000001
v -0.114671 2.339593 0.157832
v -0.224936 2.282687 0.309598
v -0.415627 2.065914 0.572062
v -0.543043 1.741491 0.747435
v -0.576491 1.553898 0.793472
v -0.538138 1.190456 0.740684
v -0.383891 0.674624 0.528381
v -0.325537 0.404516 0.448063
v -0.249155 0.210034 0.342933
v -0.134842 0.080086 0.185594
v -0.068742 0.045973 0.094615
v -0.185542 2.339593 0.060287
v -0.363954 2.282687 0.118256
v -0.672499 2.065914 0.218508
v -0.878662 1.741491 0.285495
v -0.932782 1.553898 0.303080
v -0.870726 1.190456 0.282916
v -0.621148 0.674624 0.201824
v -0.526730 0.404516 0.171145
v -0.403141 0.210034 0.130989
v -0.218179 0.080086 0.070891
v -0.111226 0.045973 0.036140
v -0.185542 2.339593 -0.060286
v -0.363954 2.282687 -0.118255
v -0.672499 2.065914 -0.218508
v -0.878662 1.741491 -0.285494
v -0.932782 1.553898 -0.303079
v -0.870726 1.190456 -0.282915
v -0.621148 0.674624 -0.201823
v -0.526730 0.404516 -0.171145
v -0.403141 0.210034 -0.130988
v -0.218179 0.080086 -0.070890
v -0.111226 0.045973 -0.036139
v -0.114671 2.339593 -0.157831
v -0.224936 2.282687 -0.309597
v -0.415627 2.065914 -0.572061
v -0.543043 1.741491 -0.747434
v -0.576491 1.553898 -0.793472
v -0.538138 1.190456 -0.740683
v -0.383891 0.674624 -0.528380
v -0.325537 0.404516 -0.448063
v -0.249155 0.210034 -0.342932
v -0.134842 0.080086 -0.185593
v -0.068742 0.045973 -0.094615
v -0.000000 2.339593 -0.195090
v -0.000000 1.553898 -0.980785
v -0.000000 1.190456 -0.915535
v -0.000000 0.404516 -0.553836
v -0.000000 0.080086 -0.229406
v -0.000000 0.045973 -0.116950
vt 0.700000 0.625000
vt 0.700000 0.750000
vt 0.600000 0.750000
vt 0.600000 0.625000
vt 0.700000 0.562500
vt 0.600000 0.562500
vt 0.700000 0.062500
vt 0.700000 0.125000
vt 0.600000 0.125000
vt 0.600000 0.062500
vt 0.700000 0.500000
vt 0.600000 0.500000
vt 0.700000 0.937500
vt 0.650000 1.000000
vt 0.600000 0.937500
vt 0.650000 0.000000
vt 0.700000 0.437500
vt 0.600000 0.437500
vt 0.700000 0.875000
vt 0.600000 0.875000
vt 0.700000 0.375000
vt 0.600000 0.375000
vt 0.500000 0.875000
vt 0.500000 0.750000
vt 0.600000 0.250000
vt 0.500000 0.250000
vt 0.500000 0.125000
vt 0.500000 0.625000
vt 0.400000 0.250000
vt 0.400000 0.125000
vt 0.400000 0.750000
vt 0.400000 0.625000
vt 0.500000 0.562500
vt 0.500000 0.062500
vt 0.500000 0.500000
vt 0.550000 1.000000
vt 0.500000 0.937500
vt 0.550000 0.000000
vt 0.500000 0.437500
vt 0.500000 0.375000
vt 0.400000 0.875000
vt 0.400000 0.375000
vt 0.400000 0.937500
vt 0.400000 0.437500
vt 0.300000 0.875000
vt 0.300000 0.750000
vt 0.300000 0.375000
vt 0.300000 0.250000
vt 0.300000 0.625000
vt 0.300000 0.125000
vt 0.400000 0.562500
vt 0.400000 0.062500
vt 0.400000 0.500000
vt 0.449999 1.000000
vt 0.450000 0.000000
vt 0.200000 0.750000
vt 0.200000 0.625000
vt 0.200000 0.250000
vt 0.200000 0.125000
vt 0.300000 0.562500
vt 0.300000 0.062500
vt 0.300000 0.500000
vt 0.349999 1.000000
vt 0.300000 0.937500
vt 0.350000 0.000000
vt 0.300000 0.437500
vt 0.200000 0.875000
vt 0.200000 0.375000
vt 0.200000 0.437500
vt 0.100000 0.875000
vt 0.100000 0.750000
vt 0.100000 0.375000
vt 0.100000 0.250000
vt 0.100000 0.625000
vt 0.100000 0.125000
vt 0.200000 0.562500
vt 0.200000 0.062500
vt 0.200000 0.500000
vt 0.250000 1.000000
vt 0.200000 0.937500
vt 0.250000 0.000000
vt 0.000000 0.250000
vt 0.000000 0.125000
vt 0.100000 0.562500
vt 0.100000 0.062500
vt 0.100000 0.500000
vt 0.150000 1.000000
vt 0.100000 0.937500
vt 0.150000 0.000000
vt 0.100000 0.437500
vt 0.000000 0.875000
vt 0.000000 0.750000
vt 0.000000 0.375000
vt 0.000000 0.625000
vt 1.000000 0.250000
vt 1.000000 0.375000
vt 0.900000 0.375000
vt 0.900000 0.250000
vt 1.000000 0.750000
vt 1.000000 0.875000
vt 0.900000 0.875000
vt 0.900000 0.750000
vt 1.000000 0.625000
vt 0.900000 0.625000
vt 1.000000 0.125000
vt 0.900000 0.125000
vt 0.000000 0.562500
vt 0.000000 0.062500
vt 0.000000 0.500000
vt 0.050000 1.000000
vt 0.000000 0.937500
vt 0.050000 0.000000
vt 0.000000 0.437500
vt 1.000000 0.062500
vt 0.900000 0.062500
vt 1.000000 0.500000
vt 1.000000 0.562500
vt 0.900000 0.562500
vt 0.900000 0.500000
vt 1.000000 0.937500
vt 0.950001 1.000000
vt 0.900000 0.937500
vt 0.950000 0.000000
vt 1.000000 0.437500
vt 0.900000 0.437500
vt 0.800000 0.875000
vt 0.800000 0.750000
vt 0.800000 0.375000
vt 0.800000 0.250000
vt 0.800000 0.625000
vt 0.800000 0.125000
vt 0.700000 0.250000
vt 0.800000 0.562500
vt 0.800000 0.062500
vt 0.800000 0.500000
vt 0.850000 1.000000
vt 0.800000 0.937500
vt 0.850000 0.000000
vt 0.800000 0.437500
vt 0.750000 1.000000
vt 0.750000 0.000000
vn 0.2608 0.5363 -0.8027
vn 0.2969 0.2772 -0.9138
vn 0.0939 -0.9527 -0.2890
vn 0.3046 -0.1683 -0.9375
vn 0.0318 0.9947 -0.0980
vn 0.0318 -0.9947 -0.0980
vn 0.2782 -0.4355 -0.8561
vn 0.0939 0.9527 -0.2890
vn 0.2917 -0.3300 -0.8978
vn 0.4651 0.8182 -0.3379
vn 0.4651 -0.8182 -0.3379
vn 0.6828 0.5363 -0.4961
vn 0.5749 -0.8182 0.0000
vn 0.8440 0.5363 0.0000
vn 0.7773 0.2772 -0.5648
vn 0.2458 -0.9527 -0.1786
vn 0.7975 -0.1683 -0.5794
vn 0.0833 0.9947 -0.0605
vn 0.0833 -0.9947 -0.0605
vn 0.7283 -0.4355 -0.5291
vn 0.2458 0.9527 -0.1786
vn 0.7637 -0.3300 -0.5549
vn 0.5749 0.8182 0.0000
vn 0.8440 -0.5363 0.0000
vn 0.3039 0.9527 0.0000
vn 0.9440 -0.3300 0.0000
vn 0.4651 0.8182 0.3379
vn 0.6828 -0.5363 0.4961
vn 0.6828 0.5363 0.4961
vn 0.4651 -0.8182 0.3379
vn 0.9608 0.2772 0.0000
vn 0.3039 -0.9527 0.0000
vn 0.9857 -0.1683 0.0000
vn 0.1030 0.9947 0.0000
vn 0.1030 -0.9947 0.0000
vn 0.9002 -0.4355 0.0000
vn 0.2608 0.5363 0.8027
vn 0.1776 -0.8182 0.5467
vn 0.7773 0.2772 0.5648
vn 0.2458 -0.9527 0.1786
vn 0.7975 -0.1683 0.5794
vn 0.0833 0.9947 0.0605
vn 0.0833 -0.9947 0.0605
vn 0.7283 -0.4355 0.5291
vn 0.2458 0.9527 0.1786
vn 0.7637 -0.3300 0.5549
vn 0.1776 0.8182 0.5467
vn 0.2608 -0.5363 0.8027
vn 0.2917 -0.3300 0.8978
vn -0.1776 0.8182 0.5467
vn -0.2608 -0.5363 0.8027
vn -0.2608 0.5363 0.8027
vn -0.1776 -0.8182 0.5467
vn 0.2969 0.2772 0.9138
vn 0.0939 -0.9527 0.2890
vn 0.3046 -0.1683 0.9375
vn 0.0318 0.9947 0.0980
vn 0.0318 -0.9947 0.0980
vn 0.2782 -0.4355 0.8561
vn 0.0939 0.9527 0.2890
vn -0.4651 -0.8182 0.3379
vn -0.2969 0.2772 0.9138
vn -0.0939 -0.9527 0.2890
vn -0.3046 -0.1683 0.9375
vn -0.0318 0.9947 0.0980
vn -0.0318 -0.9947 0.0980
vn -0.2782 -0.4355 0.8561
vn -0.0939 0.9527 0.2890
vn -0.2917 -0.3300 0.8978
vn -0.4651 0.8182 0.3379
vn -0.6828 -0.5363 0.4961
vn -0.6828 0.5363 0.4961
vn -0.8440 -0.5363 0.0000
vn -0.5749 0.8182 0.0000
vn -0.8440 0.5363 0.0000
vn -0.5749 -0.8182 0.0000
vn -0.7773 0.2772 0.5648
vn -0.2458 -0.9527 0.1786
vn -0.7975 -0.1683 0.5794
vn -0.0833 0.9947 0.0605
vn -0.0833 -0.9947 0.0605
vn -0.7283 -0.4355 0.5291
vn -0.2458 0.9527 0.1786
vn -0.7637 -0.3300 0.5549
vn -0.3039 -0.9527 0.0000
vn -0.9857 -0.1683 0.0000
vn -0.1030 0.9947 0.0000
vn -0.1030 -0.9947 -0.0000
vn -0.9002 -0.4355 0.0000
vn -0.3039 0.9527 0.0000
vn -0.9440 -0.3300 0.0000
vn -0.4651 0.8182 -0.3379
vn -0.6828 -0.5363 -0.4961
vn -0.6828 0.5363 -0.4961
vn -0.4651 -0.8182 -0.3379
vn -0.9608 0.2772 0.0000
vn -0.1776 0.8182 -0.5467
vn -0.2608 -0.5363 -0.8027
vn -0.2608 0.5363 -0.8027
vn -0.1776 -0.8182 -0.5467
vn -0.7773 0.2772 -0.5648
vn -0.2458 -0.9527 -0.1786
vn -0.7975 -0.1683 -0.5794
vn -0.0833 0.9947 -0.0605
vn -0.0833 -0.9947 -0.0605
vn -0.7283 -0.4355 -0.5291
vn -0.2458 0.9527 -0.1786
vn -0.7637 -0.3300 -0.5549
vn -0.3046 -0.1683 -0.9375
vn -0.0318 0.9947 -0.0980
vn -0.0318 -0.9947 -0.0980
vn -0.2782 -0.4355 -0.8561
vn -0.0939 0.9527 -0.2890
vn -0.2917 -0.3300 -0.8978
vn 0.2608 -0.5363 -0.8027
vn 0.1776 -0.8182 -0.5467
vn -0.2969 0.2772 -0.9138
vn -0.0939 -0.9527 -0.2890
vn 0.6828 -0.5363 -0.4961
vn 0.1776 0.8182 -0.5467
usemtl None
s off
f 3/1/1 2/2/1 8/3/1 9/4/1
f 108/5/2 3/1/2 9/4/2 10/6/2
f 112/7/3 111/8/3 15/9/3 16/10/3
f 109/11/4 108/5/4 10/6/4 11/12/4
f 107/13/5 62/14/5 6/15/5
f 61/16/6 112/7/6 16/10/6
f 4/17/7 109/11/7 11/12/7 12/18/7
f 1/19/8 107/13/8 6/15/8 7/20/8
f 110/21/9 4/17/9 12/18/9 13/22/9
f 8/3/10 7/20/10 18/23/10 19/24/10
f 15/9/11 14/25/11 25/26/11 26/27/11
f 8/3/12 19/24/12 20/28/12 9/4/12
f 26/27/13 25/26/13 36/29/13 37/30/13
f 20/28/14 19/24/14 30/31/14 31/32/14
f 10/6/15 9/4/15 20/28/15 21/33/15
f 16/10/16 15/9/16 26/27/16 27/34/16
f 11/12/17 10/6/17 21/33/17 22/35/17
f 6/15/18 62/36/18 17/37/18
f 61/38/19 16/10/19 27/34/19
f 12/18/20 11/12/20 22/35/20 23/39/20
f 7/20/21 6/15/21 17/37/21 18/23/21
f 13/22/22 12/18/22 23/39/22 24/40/22
f 19/24/23 18/23/23 29/41/23 30/31/23
f 25/26/24 24/40/24 35/42/24 36/29/24
f 18/23/25 17/37/25 28/43/25 29/41/25
f 24/40/26 23/39/26 34/44/26 35/42/26
f 30/31/27 29/41/27 40/45/27 41/46/27
f 36/29/28 35/42/28 46/47/28 47/48/28
f 30/31/29 41/46/29 42/49/29 31/32/29
f 36/29/30 47/48/30 48/50/30 37/30/30
f 21/33/31 20/28/31 31/32/31 32/51/31
f 27/34/32 26/27/32 37/30/32 38/52/32
f 22/35/33 21/33/33 32/51/33 33/53/33
f 17/37/34 62/54/34 28/43/34
f 61/55/35 27/34/35 38/52/35
f 23/39/36 22/35/36 33/53/36 34/44/36
f 42/49/37 41/46/37 52/56/37 53/57/37
f 48/50/38 47/48/38 58/58/38 59/59/38
f 32/51/39 31/32/39 42/49/39 43/60/39
f 38/52/40 37/30/40 48/50/40 49/61/40
f 33/53/41 32/51/41 43/60/41 44/62/41
f 28/43/42 62/63/42 39/64/42
f 61/65/43 38/52/43 49/61/43
f 34/44/44 33/53/44 44/62/44 45/66/44
f 29/41/45 28/43/45 39/64/45 40/45/45
f 35/42/46 34/44/46 45/66/46 46/47/46
f 41/46/47 40/45/47 51/67/47 52/56/47
f 47/48/48 46/47/48 57/68/48 58/58/48
f 46/47/49 45/66/49 56/69/49 57/68/49
f 52/56/50 51/67/50 64/70/50 65/71/50
f 58/58/51 57/68/51 70/72/51 71/73/51
f 53/57/52 52/56/52 65/71/52 66/74/52
f 58/58/53 71/73/53 72/75/53 59/59/53
f 43/60/54 42/49/54 53/57/54 54/76/54
f 49/61/55 48/50/55 59/59/55 60/77/55
f 44/62/56 43/60/56 54/76/56 55/78/56
f 39/64/57 62/79/57 50/80/57
f 61/81/58 49/61/58 60/77/58
f 45/66/59 44/62/59 55/78/59 56/69/59
f 40/45/60 39/64/60 50/80/60 51/67/60
f 72/75/61 71/73/61 82/82/61 83/83/61
f 54/76/62 53/57/62 66/74/62 67/84/62
f 60/77/63 59/59/63 72/75/63 73/85/63
f 55/78/64 54/76/64 67/84/64 68/86/64
f 50/80/65 62/87/65 63/88/65
f 61/89/66 60/77/66 73/85/66
f 56/69/67 55/78/67 68/86/67 69/90/67
f 51/67/68 50/80/68 63/88/68 64/70/68
f 57/68/69 56/69/69 69/90/69 70/72/69
f 64/70/70 75/91/70 76/92/70 65/71/70
f 71/73/71 70/72/71 81/93/71 82/82/71
f 66/74/72 65/71/72 76/92/72 77/94/72
f 82/95/73 81/96/73 92/97/73 93/98/73
f 76/99/74 75/100/74 86/101/74 87/102/74
f 77/103/75 76/99/75 87/102/75 88/104/75
f 83/105/76 82/95/76 93/98/76 94/106/76
f 67/84/77 66/74/77 77/94/77 78/107/77
f 73/85/78 72/75/78 83/83/78 84/108/78
f 68/86/79 67/84/79 78/107/79 79/109/79
f 63/88/80 62/110/80 74/111/80
f 61/112/81 73/85/81 84/108/81
f 69/90/82 68/86/82 79/109/82 80/113/82
f 64/70/83 63/88/83 74/111/83 75/91/83
f 70/72/84 69/90/84 80/113/84 81/93/84
f 84/114/85 83/105/85 94/106/85 95/115/85
f 79/116/86 78/117/86 89/118/86 90/119/86
f 74/120/87 62/121/87 85/122/87
f 61/123/88 84/114/88 95/115/88
f 80/124/89 79/116/89 90/119/89 91/125/89
f 75/100/90 74/120/90 85/122/90 86/101/90
f 81/96/91 80/124/91 91/125/91 92/97/91
f 86/101/92 97/126/92 98/127/92 87/102/92
f 92/97/93 103/128/93 104/129/93 93/98/93
f 88/104/94 87/102/94 98/127/94 99/130/94
f 94/106/95 93/98/95 104/129/95 105/131/95
f 78/117/96 77/103/96 88/104/96 89/118/96
f 98/127/97 97/126/97 1/19/97 2/2/97
f 104/129/98 103/128/98 110/21/98 5/132/98
f 99/130/99 98/127/99 2/2/99 3/1/99
f 105/131/100 104/129/100 5/132/100 111/8/100
f 89/118/101 88/104/101 99/130/101 100/133/101
f 95/115/102 94/106/102 105/131/102 106/134/102
f 90/119/103 89/118/103 100/133/103 101/135/103
f 85/122/104 62/136/104 96/137/104
f 61/138/105 95/115/105 106/134/105
f 91/125/106 90/119/106 101/135/106 102/139/106
f 86/101/107 85/122/107 96/137/107 97/126/107
f 92/97/108 91/125/108 102/139/108 103/128/108
f 101/135/109 100/133/109 108/5/109 109/11/109
f 96/137/110 62/140/110 107/13/110
f 61/141/111 106/134/111 112/7/111
f 102/139/112 101/135/112 109/11/112 4/17/112
f 97/126/113 96/137/113 107/13/113 1/19/113
f 103/128/114 102/139/114 4/17/114 110/21/114
f 5/132/115 110/21/115 13/22/115 14/25/115
f 111/8/116 5/132/116 14/25/116 15/9/116
f 100/133/117 99/130/117 3/1/117 108/5/117
f 106/134/118 105/131/118 111/8/118 112/7/118
f 14/25/119 13/22/119 24/40/119 25/26/119
f 2/2/120 1/19/120 7/20/120 8/3/120
o Cone
v 0.000000 -0.192084 -0.192084
v 0.150178 -0.192084 -0.119763
v 0.187268 -0.192084 0.042743
v 0.083342 -0.192084 0.173062
v 0.000000 0.192084 0.000000
v -0.083342 -0.192084 0.173062
v -0.187268 -0.192084 0.042743
v -0.150178 -0.192084 -0.119763
vt 0.250000 0.490000
vt 0.250000 0.250000
vt 0.437640 0.399638
vt 0.483983 0.196595
vt 0.354132 0.033767
vt 0.145868 0.033767
vt 0.016017 0.196595
vt 0.062360 0.399638
vt 0.750000 0.490000
vt 0.937640 0.399638
vt 0.983983 0.196595
vt 0.854132 0.033767
vt 0.645868 0.033767
vt 0.516017 0.196595
vt 0.562360 0.399638
vn 0.3956 0.4107 -0.8215
vn 0.8889 0.4107 -0.2029
vn 0.7128 0.4107 0.5685
vn -0.0000 0.4107 0.9118
vn -0.7128 0.4107 0.5685
vn -0.8889 0.4107 -0.2029
vn -0.3956 0.4107 -0.8215
vn 0.0000 -1.0000 -0.0000
usemtl None
s off
f 113/142/121 117/143/121 114/144/121
f 114/144/122 117/143/122 115/145/122
f 115/145/123 117/143/123 116/146/123
f 116/146/124 117/143/124 118/147/124
f 118/147/125 117/143/125 119/148/125
f 119/148/126 117/143/126 120/149/126
f 120/149/127 117/143/127 113/142/127
f 113/150/128 114/151/128 115/152/128 116/153/128 118/154/128 119/155/128 120/156/128
