# Blender 4.2.3 LTS
# www.blender.org
mtllib Fishing_pole.mtl
o Cone
v 0.000000 -3.000000 0.000000
v 0.000000 2.300211 0.000000
v 0.000000 -3.000000 -0.100000
v 0.000000 2.300211 -0.050000
v 0.095106 -3.000000 -0.030902
v 0.047553 2.300211 -0.015451
v 0.058779 -3.000000 0.080902
v 0.029389 2.300211 0.040451
v -0.058779 -3.000000 0.080902
v -0.029389 2.300211 0.040451
v -0.095106 -3.000000 -0.030902
v -0.047553 2.300211 -0.015451
v 0.022231 -0.929545 -0.064316
v 0.070772 -0.894904 -0.028722
v 0.070772 -0.964186 -0.029376
v 0.057608 -0.954792 -0.038852
v 0.070772 -0.894904 -0.008002
v 0.070772 -0.964186 -0.006290
v 0.047398 -0.947505 0.065237
v 0.047199 -0.911727 0.064964
v 0.022231 -0.929545 0.065100
vn -0.0000 -1.0000 -0.0000
vn -0.0000 1.0000 -0.0000
vn 0.5878 0.0076 -0.8090
vn 0.9510 0.0076 0.3090
vn -0.0000 0.0076 1.0000
vn -0.9510 0.0076 0.3090
vn -0.5878 0.0076 -0.8090
vn 0.5809 -0.8140 -0.0000
vn -1.0000 -0.0000 -0.0000
vn 0.5809 0.8140 -0.0000
vt 0.750000 0.250000
vt 0.750000 0.490000
vt 0.978254 0.324164
vt 0.250000 0.250000
vt 0.478254 0.324164
vt 0.250000 0.490000
vt 0.800000 0.500000
vt 1.000000 0.500000
vt 0.849894 0.692936
vt 0.815795 0.692050
vt 0.941901 0.695318
vt 1.000000 1.000000
vt 0.800000 1.000000
vt 0.814293 0.698586
vt 0.891068 0.055836
vt 0.391068 0.055836
vt 0.600000 0.693624
vt 0.600000 0.500000
vt 0.600000 1.000000
vt 0.600000 0.696999
vt 0.762581 0.698586
vt 0.758648 0.692050
vt 0.608932 0.055836
vt 0.108932 0.055836
vt 0.400000 1.000000
vt 0.400000 0.500000
vt 0.547002 0.695318
vt 0.600000 0.696999
vt 0.521746 0.324164
vt 0.021746 0.324164
vt 0.200000 1.000000
vt 0.200000 0.500000
vt 0.000000 1.000000
vt 0.000000 0.500000
vt 0.054408 0.666667
vt 0.072853 1.000000
vt 0.092437 1.000000
vt 0.153746 0.838123
vt 0.146148 0.666667
vt 0.072853 0.000000
vt 0.072235 0.333333
vt 0.094054 0.333333
vt 0.092437 0.000000
vt 0.094054 0.333333
vt 0.072235 0.333333
vt 0.065737 0.423731
vt 0.054408 0.666667
vt 0.154038 0.493848
s 0
f 1/1/1 3/2/1 5/3/1
f 2/4/2 6/5/2 4/6/2
f 5/7/3 3/8/3 16/9/3 15/10/3
f 13/11/3 16/9/3 3/8/3 4/12/3 6/13/3 5/7/3 15/10/3 14/14/3
f 1/1/1 5/3/1 7/15/1
f 2/4/2 8/16/2 6/5/2
f 19/17/4 7/18/4 5/7/4 6/13/4 8/19/4 20/20/4 17/21/4 18/22/4
f 1/1/1 7/15/1 9/23/1
f 2/4/2 10/24/2 8/16/2
f 8/19/5 10/25/5 9/26/5 7/18/5 19/17/5 21/27/5 20/28/5
f 1/1/1 9/23/1 11/29/1
f 2/4/2 12/30/2 10/24/2
f 9/26/6 10/25/6 12/31/6 11/32/6
f 1/1/1 11/29/1 3/2/1
f 2/4/2 4/6/2 12/30/2
f 11/32/7 12/31/7 4/33/7 3/34/7
f 13/35/8 14/36/8 17/37/8 20/38/8 21/39/8
f 14/40/9 15/41/9 18/42/9 17/43/9
f 18/44/10 15/45/10 16/46/10 13/47/10 21/39/10 19/48/10
o Torus
v 0.456395 -0.929545 0.000000
v 0.396395 -0.894904 0.000000
v 0.396395 -0.964186 0.000000
v 0.290559 -0.929545 -0.228254
v 0.272018 -0.894904 -0.171190
v 0.272018 -0.964186 -0.171190
v 0.022231 -0.929545 -0.141068
v 0.070772 -0.894904 -0.105801
v 0.070772 -0.964186 -0.105801
v 0.022231 -0.929545 0.141068
v 0.070772 -0.894904 0.105801
v 0.070772 -0.964186 0.105801
v 0.290559 -0.929545 0.228254
v 0.272018 -0.894904 0.171190
v 0.272018 -0.964186 0.171190
vn 0.4700 0.8140 -0.3414
vn -0.8090 -0.0000 0.5878
vn 0.4700 -0.8140 -0.3414
vn -0.1795 0.8140 -0.5525
vn 0.3090 -0.0000 0.9511
vn -0.1795 -0.8140 -0.5525
vn -0.5809 0.8140 -0.0000
vn 1.0000 -0.0000 -0.0000
vn -0.5809 -0.8140 -0.0000
vn -0.1795 0.8140 0.5525
vn 0.3090 -0.0000 -0.9511
vn -0.1795 -0.8140 0.5525
vn 0.4700 0.8140 0.3414
vn -0.8090 -0.0000 -0.5878
vn 0.4700 -0.8140 0.3414
vt 0.600000 0.666667
vt 0.800000 0.666667
vt 0.800000 1.000000
vt 0.600000 1.000000
vt 0.600000 0.000000
vt 0.800000 0.000000
vt 0.800000 0.333333
vt 0.600000 0.333333
vt 1.000000 0.666667
vt 1.000000 1.000000
vt 1.000000 0.000000
vt 1.000000 0.333333
vt 0.000000 0.666667
vt 0.200000 0.666667
vt 0.200000 1.000000
vt 0.000000 1.000000
vt 0.000000 0.000000
vt 0.200000 0.000000
vt 0.200000 0.333333
vt 0.000000 0.333333
vt 0.400000 0.666667
vt 0.400000 1.000000
vt 0.400000 0.000000
vt 0.400000 0.333333
s 0
f 22/49/11 25/50/11 26/51/11 23/52/11
f 23/53/12 26/54/12 27/55/12 24/56/12
f 24/56/13 27/55/13 25/50/13 22/49/13
f 25/50/14 28/57/14 29/58/14 26/51/14
f 26/54/15 29/59/15 30/60/15 27/55/15
f 27/55/16 30/60/16 28/57/16 25/50/16
f 28/61/17 31/62/17 32/63/17 29/64/17
f 29/65/18 32/66/18 33/67/18 30/68/18
f 30/68/19 33/67/19 31/62/19 28/61/19
f 31/62/20 34/69/20 35/70/20 32/63/20
f 32/66/21 35/71/21 36/72/21 33/67/21
f 33/67/22 36/72/22 34/69/22 31/62/22
f 34/69/23 22/49/23 23/52/23 35/70/23
f 35/71/24 23/53/24 24/56/24 36/72/24
f 36/72/25 24/56/25 22/49/25 34/69/25
o Torus.001
v 0.402437 -0.029028 0.000000
v 0.351898 0.000150 0.000000
v 0.351898 -0.058207 0.000000
v 0.262752 -0.029028 -0.192260
v 0.247134 0.000150 -0.144195
v 0.247134 -0.058207 -0.144195
v 0.036736 -0.029028 -0.118823
v 0.077623 0.000150 -0.089117
v 0.077623 -0.058207 -0.089117
v 0.036736 -0.029028 0.118823
v 0.077623 0.000150 0.089117
v 0.077623 -0.058207 0.089117
v 0.262752 -0.029028 0.192260
v 0.247134 0.000150 0.144195
v 0.247134 -0.058207 0.144195
vn 0.4700 0.8140 -0.3414
vn -0.8090 -0.0000 0.5878
vn 0.4700 -0.8140 -0.3414
vn -0.1795 0.8140 -0.5525
vn 0.3090 -0.0000 0.9511
vn -0.1795 -0.8140 -0.5525
vn -0.5809 0.8140 -0.0000
vn 1.0000 -0.0000 -0.0000
vn -0.5809 -0.8140 -0.0000
vn -0.1795 0.8140 0.5525
vn 0.3090 -0.0000 -0.9511
vn -0.1795 -0.8140 0.5525
vn 0.4700 0.8140 0.3414
vn -0.8090 -0.0000 -0.5878
vn 0.4700 -0.8140 0.3414
vt 0.600000 0.666667
vt 0.800000 0.666667
vt 0.800000 1.000000
vt 0.600000 1.000000
vt 0.600000 0.000000
vt 0.800000 0.000000
vt 0.800000 0.333333
vt 0.600000 0.333333
vt 1.000000 0.666667
vt 1.000000 1.000000
vt 1.000000 0.000000
vt 1.000000 0.333333
vt 0.000000 0.666667
vt 0.200000 0.666667
vt 0.200000 1.000000
vt 0.000000 1.000000
vt 0.000000 0.000000
vt 0.200000 0.000000
vt 0.200000 0.333333
vt 0.000000 0.333333
vt 0.400000 0.666667
vt 0.400000 1.000000
vt 0.400000 0.000000
vt 0.400000 0.333333
s 0
f 37/73/26 40/74/26 41/75/26 38/76/26
f 38/77/27 41/78/27 42/79/27 39/80/27
f 39/80/28 42/79/28 40/74/28 37/73/28
f 40/74/29 43/81/29 44/82/29 41/75/29
f 41/78/30 44/83/30 45/84/30 42/79/30
f 42/79/31 45/84/31 43/81/31 40/74/31
f 43/85/32 46/86/32 47/87/32 44/88/32
f 44/89/33 47/90/33 48/91/33 45/92/33
f 45/92/34 48/91/34 46/86/34 43/85/34
f 46/86/35 49/93/35 50/94/35 47/87/35
f 47/90/36 50/95/36 51/96/36 48/91/36
f 48/91/37 51/96/37 49/93/37 46/86/37
f 49/93/38 37/73/38 38/76/38 50/94/38
f 50/95/39 38/77/39 39/80/39 51/96/39
f 51/96/40 39/80/40 37/73/40 49/93/40
o Torus.002
v 0.348188 0.725408 0.000000
v 0.304723 0.750503 0.000000
v 0.304723 0.700313 0.000000
v 0.228054 0.725408 -0.165352
v 0.214622 0.750503 -0.124014
v 0.214622 0.700313 -0.124014
v 0.033671 0.725408 -0.102193
v 0.068835 0.750503 -0.076645
v 0.068835 0.700313 -0.076645
v 0.033671 0.725408 0.102193
v 0.068835 0.750503 0.076645
v 0.068835 0.700313 0.076645
v 0.228054 0.725408 0.165352
v 0.214622 0.750503 0.124014
v 0.214622 0.700313 0.124014
vn 0.4700 0.8140 -0.3414
vn -0.8090 -0.0000 0.5878
vn 0.4700 -0.8140 -0.3414
vn -0.1795 0.8140 -0.5525
vn 0.3090 -0.0000 0.9511
vn -0.1795 -0.8140 -0.5525
vn -0.5809 0.8140 -0.0000
vn 1.0000 -0.0000 -0.0000
vn -0.5809 -0.8140 -0.0000
vn -0.1795 0.8140 0.5525
vn 0.3090 -0.0000 -0.9511
vn -0.1795 -0.8140 0.5525
vn 0.4700 0.8140 0.3414
vn -0.8090 -0.0000 -0.5878
vn 0.4700 -0.8140 0.3414
vt 0.600000 0.666667
vt 0.800000 0.666667
vt 0.800000 1.000000
vt 0.600000 1.000000
vt 0.600000 0.000000
vt 0.800000 0.000000
vt 0.800000 0.333333
vt 0.600000 0.333333
vt 1.000000 0.666667
vt 1.000000 1.000000
vt 1.000000 0.000000
vt 1.000000 0.333333
vt 0.000000 0.666667
vt 0.200000 0.666667
vt 0.200000 1.000000
vt 0.000000 1.000000
vt 0.000000 0.000000
vt 0.200000 0.000000
vt 0.200000 0.333333
vt 0.000000 0.333333
vt 0.400000 0.666667
vt 0.400000 1.000000
vt 0.400000 0.000000
vt 0.400000 0.333333
s 0
f 52/97/41 55/98/41 56/99/41 53/100/41
f 53/101/42 56/102/42 57/103/42 54/104/42
f 54/104/43 57/103/43 55/98/43 52/97/43
f 55/98/44 58/105/44 59/106/44 56/99/44
f 56/102/45 59/107/45 60/108/45 57/103/45
f 57/103/46 60/108/46 58/105/46 55/98/46
f 58/109/47 61/110/47 62/111/47 59/112/47
f 59/113/48 62/114/48 63/115/48 60/116/48
f 60/116/49 63/115/49 61/110/49 58/109/49
f 61/110/50 64/117/50 65/118/50 62/111/50
f 62/114/51 65/119/51 66/120/51 63/115/51
f 63/115/52 66/120/52 64/117/52 61/110/52
f 64/117/53 52/97/53 53/100/53 65/118/53
f 65/119/54 53/101/54 54/104/54 66/120/54
f 66/120/55 54/104/55 52/97/55 64/117/55
o Torus.003
v 0.318233 1.466729 0.000000
v 0.280399 1.488572 0.000000
v 0.280399 1.444885 0.000000
v 0.213662 1.466729 -0.143929
v 0.201971 1.488572 -0.107947
v 0.201971 1.444885 -0.107947
v 0.044464 1.466729 -0.088953
v 0.075072 1.488572 -0.066715
v 0.075072 1.444885 -0.066715
v 0.044464 1.466729 0.088953
v 0.075072 1.488572 0.066715
v 0.075072 1.444885 0.066715
v 0.213662 1.466729 0.143929
v 0.201971 1.488572 0.107947
v 0.201971 1.444885 0.107947
vn 0.4700 0.8140 -0.3414
vn -0.8090 -0.0000 0.5878
vn 0.4700 -0.8140 -0.3414
vn -0.1795 0.8140 -0.5525
vn 0.3090 -0.0000 0.9511
vn -0.1795 -0.8140 -0.5525
vn -0.5809 0.8140 -0.0000
vn 1.0000 -0.0000 -0.0000
vn -0.5809 -0.8140 -0.0000
vn -0.1795 0.8140 0.5525
vn 0.3090 -0.0000 -0.9511
vn -0.1795 -0.8140 0.5525
vn 0.4700 0.8140 0.3414
vn -0.8090 -0.0000 -0.5878
vn 0.4700 -0.8140 0.3414
vt 0.600000 0.666667
vt 0.800000 0.666667
vt 0.800000 1.000000
vt 0.600000 1.000000
vt 0.600000 0.000000
vt 0.800000 0.000000
vt 0.800000 0.333333
vt 0.600000 0.333333
vt 1.000000 0.666667
vt 1.000000 1.000000
vt 1.000000 0.000000
vt 1.000000 0.333333
vt 0.000000 0.666667
vt 0.200000 0.666667
vt 0.200000 1.000000
vt 0.000000 1.000000
vt 0.000000 0.000000
vt 0.200000 0.000000
vt 0.200000 0.333333
vt 0.000000 0.333333
vt 0.400000 0.666667
vt 0.400000 1.000000
vt 0.400000 0.000000
vt 0.400000 0.333333
s 0
f 67/121/56 70/122/56 71/123/56 68/124/56
f 68/125/57 71/126/57 72/127/57 69/128/57
f 69/128/58 72/127/58 70/122/58 67/121/58
f 70/122/59 73/129/59 74/130/59 71/123/59
f 71/126/60 74/131/60 75/132/60 72/127/60
f 72/127/61 75/132/61 73/129/61 70/122/61
f 73/133/62 76/134/62 77/135/62 74/136/62
f 74/137/63 77/138/63 78/139/63 75/140/63
f 75/140/64 78/139/64 76/134/64 73/133/64
f 76/134/65 79/141/65 80/142/65 77/135/65
f 77/138/66 80/143/66 81/144/66 78/139/66
f 78/139/67 81/144/67 79/141/67 76/134/67
f 79/141/68 67/121/68 68/124/68 80/142/68
f 80/143/69 68/125/69 69/128/69 81/144/69
f 81/144/70 69/128/70 67/121/70 79/141/70
o Torus.006
v 0.264605 2.131331 0.000000
v 0.231756 2.150297 0.000000
v 0.231756 2.112365 0.000000
v 0.173812 2.131331 -0.124967
v 0.163661 2.150297 -0.093725
v 0.163661 2.112365 -0.093725
v 0.026905 2.131331 -0.077234
v 0.053481 2.150297 -0.057925
v 0.053481 2.112365 -0.057925
v 0.026905 2.131331 0.077234
v 0.053481 2.150297 0.057925
v 0.053481 2.112365 0.057925
v 0.173812 2.131331 0.124967
v 0.163661 2.150297 0.093725
v 0.163661 2.112365 0.093725
vn 0.4700 0.8140 -0.3414
vn -0.8090 -0.0000 0.5878
vn 0.4700 -0.8140 -0.3414
vn -0.1795 0.8140 -0.5525
vn 0.3090 -0.0000 0.9511
vn -0.1795 -0.8140 -0.5525
vn -0.5809 0.8140 -0.0000
vn 1.0000 -0.0000 -0.0000
vn -0.5809 -0.8140 -0.0000
vn -0.1795 0.8140 0.5525
vn 0.3090 -0.0000 -0.9511
vn -0.1795 -0.8140 0.5525
vn 0.4700 0.8140 0.3414
vn -0.8090 -0.0000 -0.5878
vn 0.4700 -0.8140 0.3414
vt 0.600000 0.666667
vt 0.800000 0.666667
vt 0.800000 1.000000
vt 0.600000 1.000000
vt 0.600000 0.000000
vt 0.800000 0.000000
vt 0.800000 0.333333
vt 0.600000 0.333333
vt 1.000000 0.666667
vt 1.000000 1.000000
vt 1.000000 0.000000
vt 1.000000 0.333333
vt 0.000000 0.666667
vt 0.200000 0.666667
vt 0.200000 1.000000
vt 0.000000 1.000000
vt 0.000000 0.000000
vt 0.200000 0.000000
vt 0.200000 0.333333
vt 0.000000 0.333333
vt 0.400000 0.666667
vt 0.400000 1.000000
vt 0.400000 0.000000
vt 0.400000 0.333333
s 0
f 82/145/71 85/146/71 86/147/71 83/148/71
f 83/149/72 86/150/72 87/151/72 84/152/72
f 84/152/73 87/151/73 85/146/73 82/145/73
f 85/146/74 88/153/74 89/154/74 86/147/74
f 86/150/75 89/155/75 90/156/75 87/151/75
f 87/151/76 90/156/76 88/153/76 85/146/76
f 88/157/77 91/158/77 92/159/77 89/160/77
f 89/161/78 92/162/78 93/163/78 90/164/78
f 90/164/79 93/163/79 91/158/79 88/157/79
f 91/158/80 94/165/80 95/166/80 92/159/80
f 92/162/81 95/167/81 96/168/81 93/163/81
f 93/163/82 96/168/82 94/165/82 91/158/82
f 94/165/83 82/145/83 83/148/83 95/166/83
f 95/167/84 83/149/84 84/152/84 96/168/84
f 96/168/85 84/152/85 82/145/85 94/165/85
o Cylinder
v 0.218110 -1.387840 -0.178683
v 0.218110 -1.387840 0.209794
v 0.386325 -1.484960 -0.178683
v 0.386325 -1.484960 0.209794
v 0.386325 -1.679198 -0.178683
v 0.386325 -1.679198 0.209794
v 0.218110 -1.776317 -0.178683
v 0.218110 -1.776317 0.209794
v 0.049894 -1.679198 -0.178683
v 0.049894 -1.679198 0.209794
v 0.049894 -1.484960 -0.178683
v 0.049894 -1.484960 0.209794
vn 0.5000 0.8660 -0.0000
vn 1.0000 -0.0000 -0.0000
vn 0.5000 -0.8660 -0.0000
vn -0.5000 -0.8660 -0.0000
vn -0.0000 -0.0000 1.0000
vn -1.0000 -0.0000 -0.0000
vn -0.5000 0.8660 -0.0000
vn -0.0000 -0.0000 -1.0000
vt 1.000000 0.500000
vt 1.000000 1.000000
vt 0.833333 1.000000
vt 0.833333 0.500000
vt 0.666667 1.000000
vt 0.666667 0.500000
vt 0.500000 1.000000
vt 0.500000 0.500000
vt 0.333333 1.000000
vt 0.333333 0.500000
vt 0.457846 0.370000
vt 0.250000 0.490000
vt 0.042154 0.370000
vt 0.042154 0.130000
vt 0.250000 0.010000
vt 0.457846 0.130000
vt 0.166667 1.000000
vt 0.166667 0.500000
vt -0.000000 1.000000
vt -0.000000 0.500000
vt 0.750000 0.490000
vt 0.957846 0.370000
vt 0.957846 0.130000
vt 0.750000 0.010000
vt 0.542154 0.130000
vt 0.542154 0.370000
s 0
f 97/169/86 98/170/86 100/171/86 99/172/86
f 99/172/87 100/171/87 102/173/87 101/174/87
f 101/174/88 102/173/88 104/175/88 103/176/88
f 103/176/89 104/175/89 106/177/89 105/178/89
f 100/179/90 98/180/90 108/181/90 106/182/90 104/183/90 102/184/90
f 105/178/91 106/177/91 108/185/91 107/186/91
f 107/186/92 108/185/92 98/187/92 97/188/92
f 97/189/93 99/190/93 101/191/93 103/192/93 105/193/93 107/194/93
