# Blender 4.2.3 LTS
# www.blender.org
mtllib flashlight.mtl
o Cylinder
v 0.000000 -1.000000 -1.000000
v 0.000000 3.511872 -1.000000
v 0.707107 -1.000000 -0.707107
v 0.707107 3.511872 -0.707107
v 1.000000 -1.000000 0.000000
v 1.000000 3.511872 0.000000
v 0.707107 -1.000000 0.707107
v 0.707107 3.511872 0.707107
v 0.000000 -1.000000 1.000000
v 0.000000 3.511872 1.000000
v -0.707107 -1.000000 0.707107
v -0.707107 3.511872 0.707107
v -1.000000 -1.000000 0.000000
v -1.000000 3.511872 0.000000
v -0.707107 -1.000000 -0.707107
v -0.707107 3.511872 -0.707107
vn 0.3827 -0.0000 -0.9239
vn 0.9239 -0.0000 -0.3827
vn 0.9239 -0.0000 0.3827
vn 0.3827 -0.0000 0.9239
vn -0.3827 -0.0000 0.9239
vn -0.9239 -0.0000 0.3827
vn -0.0000 1.0000 -0.0000
vn -0.9239 -0.0000 -0.3827
vn -0.3827 -0.0000 -0.9239
vn -0.0000 -1.0000 -0.0000
vt 1.000000 0.500000
vt 1.000000 1.000000
vt 0.875000 1.000000
vt 0.875000 0.500000
vt 0.750000 1.000000
vt 0.750000 0.500000
vt 0.625000 1.000000
vt 0.625000 0.500000
vt 0.500000 1.000000
vt 0.500000 0.500000
vt 0.375000 1.000000
vt 0.375000 0.500000
vt 0.250000 1.000000
vt 0.250000 0.500000
vt 0.419706 0.419706
vt 0.250000 0.490000
vt 0.080294 0.419706
vt 0.010000 0.250000
vt 0.080294 0.080294
vt 0.250000 0.010000
vt 0.419706 0.080294
vt 0.490000 0.250000
vt 0.125000 1.000000
vt 0.125000 0.500000
vt 0.000000 1.000000
vt 0.000000 0.500000
vt 0.750000 0.490000
vt 0.919706 0.419706
vt 0.990000 0.250000
vt 0.919706 0.080294
vt 0.750000 0.010000
vt 0.580294 0.080294
vt 0.510000 0.250000
vt 0.580294 0.419706
s 0
f 1/1/1 2/2/1 4/3/1 3/4/1
f 3/4/2 4/3/2 6/5/2 5/6/2
f 5/6/3 6/5/3 8/7/3 7/8/3
f 7/8/4 8/7/4 10/9/4 9/10/4
f 9/10/5 10/9/5 12/11/5 11/12/5
f 11/12/6 12/11/6 14/13/6 13/14/6
f 4/15/7 2/16/7 16/17/7 14/18/7 12/19/7 10/20/7 8/21/7 6/22/7
f 13/14/8 14/13/8 16/23/8 15/24/8
f 15/24/9 16/23/9 2/25/9 1/26/9
f 1/27/10 3/28/10 5/29/10 7/30/10 9/31/10 11/32/10 13/33/10 15/34/10
o Cylinder.001
v 0.000000 2.730519 -1.309403
v 0.000000 3.974920 -1.572837
v 0.925888 2.730519 -0.925888
v 1.112164 3.974920 -1.112164
v 1.309403 2.730519 0.000000
v 1.572837 3.974920 0.000000
v 0.925888 2.730519 0.925888
v 1.112164 3.974920 1.112164
v 0.000000 2.730519 1.309403
v 0.000000 3.974920 1.572837
v -0.925888 2.730519 0.925888
v -1.112164 3.974920 1.112164
v -1.309403 2.730519 0.000000
v -1.572837 3.974920 0.000000
v -0.925888 2.730519 -0.925888
v -1.112164 3.974920 -1.112164
v 1.112164 4.547962 -1.112164
v 0.000000 4.547962 -1.572837
v 1.572837 4.547962 0.000000
v 1.112164 4.547962 1.112164
v 0.000000 4.547962 1.572837
v -1.112164 4.547962 1.112164
v -1.572837 4.547962 0.000000
v -1.112164 4.547962 -1.112164
vn 0.3756 -0.1919 -0.9067
vn 0.9067 -0.1919 -0.3756
vn 0.9067 -0.1919 0.3756
vn 0.3756 -0.1919 0.9067
vn -0.3756 -0.1919 0.9067
vn -0.9067 -0.1919 0.3756
vn 0.3827 -0.0000 0.9239
vn -0.9067 -0.1919 -0.3756
vn -0.3756 -0.1919 -0.9067
vn -0.0000 -1.0000 -0.0000
vn -0.0000 1.0000 -0.0000
vn -0.9239 -0.0000 -0.3827
vn 0.9239 -0.0000 -0.3827
vn -0.3827 -0.0000 0.9239
vn -0.3827 -0.0000 -0.9239
vn 0.3827 -0.0000 -0.9239
vn 0.9239 -0.0000 0.3827
vn -0.9239 -0.0000 0.3827
vt 1.000000 0.500000
vt 1.000000 1.000000
vt 0.875000 1.000000
vt 0.875000 0.500000
vt 0.750000 1.000000
vt 0.750000 0.500000
vt 0.625000 1.000000
vt 0.625000 0.500000
vt 0.500000 1.000000
vt 0.500000 0.500000
vt 0.375000 1.000000
vt 0.375000 0.500000
vt 0.250000 1.000000
vt 0.250000 0.500000
vt 0.125000 1.000000
vt 0.125000 0.500000
vt 0.000000 1.000000
vt 0.000000 0.500000
vt 0.750000 0.490000
vt 0.919706 0.419706
vt 0.990000 0.250000
vt 0.919706 0.080294
vt 0.750000 0.010000
vt 0.580294 0.080294
vt 0.510000 0.250000
vt 0.580294 0.419706
vt 0.419706 0.419706
vt 0.250000 0.490000
vt 0.080294 0.419706
vt 0.010000 0.250000
vt 0.080294 0.080294
vt 0.250000 0.010000
vt 0.419706 0.080294
vt 0.490000 0.250000
s 0
f 17/35/11 18/36/11 20/37/11 19/38/11
f 19/38/12 20/37/12 22/39/12 21/40/12
f 21/40/13 22/39/13 24/41/13 23/42/13
f 23/42/14 24/41/14 26/43/14 25/44/14
f 25/44/15 26/43/15 28/45/15 27/46/15
f 27/46/16 28/45/16 30/47/16 29/48/16
f 26/43/17 24/41/17 36/41/17 37/43/17
f 29/48/18 30/47/18 32/49/18 31/50/18
f 31/50/19 32/49/19 18/51/19 17/52/19
f 17/53/20 19/54/20 21/55/20 23/56/20 25/57/20 27/58/20 29/59/20 31/60/20
f 33/61/21 34/62/21 40/63/21 39/64/21 38/65/21 37/66/21 36/67/21 35/68/21
f 32/49/22 30/47/22 39/47/22 40/49/22
f 22/39/23 20/37/23 33/37/23 35/39/23
f 28/45/24 26/43/24 37/43/24 38/45/24
f 18/51/25 32/49/25 40/49/25 34/51/25
f 20/37/26 18/36/26 34/36/26 33/37/26
f 24/41/27 22/39/27 35/39/27 36/41/27
f 30/47/28 28/45/28 38/45/28 39/47/28
o Cube
v -1.013698 0.584311 0.736875
v -1.013698 1.117534 0.736875
v -1.209540 0.584311 0.240918
v -1.209540 1.117534 0.240918
v -0.517741 0.584311 0.541033
v -0.517741 1.117534 0.541033
v -0.713583 0.584311 0.045076
v -0.713583 1.117534 0.045076
vn -0.9301 -0.0000 0.3673
vn -0.3673 -0.0000 -0.9301
vn 0.9301 -0.0000 -0.3673
vn 0.3673 -0.0000 0.9301
vn -0.0000 -1.0000 -0.0000
vn -0.0000 1.0000 -0.0000
vt 0.375000 0.000000
vt 0.625000 0.000000
vt 0.625000 0.250000
vt 0.375000 0.250000
vt 0.625000 0.500000
vt 0.375000 0.500000
vt 0.625000 0.750000
vt 0.375000 0.750000
vt 0.625000 1.000000
vt 0.375000 1.000000
vt 0.125000 0.500000
vt 0.125000 0.750000
vt 0.875000 0.500000
vt 0.875000 0.750000
s 0
f 41/69/29 42/70/29 44/71/29 43/72/29
f 43/72/30 44/71/30 48/73/30 47/74/30
f 47/74/31 48/73/31 46/75/31 45/76/31
f 45/76/32 46/75/32 42/77/32 41/78/32
f 43/79/33 47/74/33 45/76/33 41/80/33
f 48/73/34 44/81/34 42/82/34 46/75/34
