# Blender 4.2.3 LTS
# www.blender.org
mtllib tree_trunk.mtl
o Cylinder
v -0.031167 -0.216290 3.044978
v -0.988459 -0.133152 2.711871
v -2.241078 0.068532 2.820777
v -2.612312 0.003241 1.914875
v -2.765313 0.157760 0.957847
v -3.506828 -0.382605 0.002510
v -2.807779 0.299331 -0.855569
v -2.379004 -0.094506 -1.744351
v -1.803344 -0.465897 -2.475992
v -0.914500 0.023982 -2.807081
v -0.019943 -0.051788 -3.142217
v 0.939367 0.126070 -2.864980
v 1.834186 0.057498 -2.375303
v 2.809370 -0.093292 -2.100638
v 2.859631 0.109311 -0.899345
v 2.971930 0.322533 -0.042514
v 3.094435 0.188226 0.855824
v 2.586290 -0.166679 1.723830
v 1.859893 -0.235046 2.471678
v 1.061008 -0.124800 2.766832
v -0.142214 1.858370 2.544337
v -0.661083 1.825673 2.064392
v -0.589210 3.965658 1.746731
v -1.466530 1.916631 1.742285
v -1.820639 1.967118 1.372864
v -2.482221 1.875752 0.773917
v -2.245940 1.658284 -0.014250
v -2.171183 2.005219 -0.770879
v -1.723691 3.731526 -0.535318
v -1.758303 1.583299 -1.372432
v -1.301541 2.319577 -1.872672
v -1.152113 3.696899 -1.429886
v -0.892045 2.033450 -2.379297
v -0.067089 2.390899 -2.159701
v 0.684055 1.968853 -1.973060
v 1.283403 2.310080 -1.895507
v 1.305550 3.984098 -1.754673
v 2.250644 2.076597 -1.590099
v 2.537615 2.001021 -0.812506
v 2.383062 1.888637 -0.069788
v 2.118731 1.724836 0.596949
v 1.959246 3.908800 0.655656
v 1.937821 2.269207 1.382578
v 1.509191 3.784161 1.019422
v 1.384115 2.121242 2.129317
v 0.971059 3.988766 1.522831
v 0.745731 2.161597 2.415114
v -1.016706 -0.137559 2.938144
v -0.041123 -0.220493 3.277618
v -2.385193 0.061961 3.057105
v -2.828432 -0.001522 1.975545
v -2.976484 0.152545 1.049505
v -3.791785 -0.387441 -0.000774
v -2.997229 0.298167 -0.976069
v -2.569294 -0.095716 -1.863109
v -1.939894 -0.464999 -2.663060
v -0.992559 0.026262 -3.015956
v -0.029019 -0.047876 -3.376932
v 1.024855 0.131133 -3.072387
v 1.919042 0.062555 -2.583055
v 3.025372 -0.086623 -2.271425
v 3.082003 0.113463 -0.918581
v 3.192945 0.326841 -0.072079
v 3.325773 0.191398 0.902043
v 2.765062 -0.165967 1.859818
v 1.984602 -0.236226 2.663324
v 1.127342 -0.127356 2.980040
v -0.047091 -0.097767 3.234329
v -0.995712 -0.021659 2.886562
v -2.330959 0.171452 2.979485
v -2.768936 0.114697 1.939965
v -2.947305 0.254275 1.033235
v -3.700526 -0.266671 -0.001570
v -2.948463 0.398943 -0.963956
v -2.521417 0.003405 -1.834142
v -1.902209 -0.300611 -2.616400
v -0.986626 0.144757 -2.978371
v -0.031266 0.096098 -3.305072
v 1.004736 0.239623 -3.007488
v 1.881517 0.195239 -2.542466
v 2.979635 0.041084 -2.231203
v 3.049865 0.224895 -0.912319
v 3.145133 0.419042 -0.071944
v 3.254514 0.281924 0.884032
v 2.716226 -0.022205 1.831644
v 1.949152 -0.097053 2.631799
v 1.104813 0.007772 2.946690
v 0.469899 4.041052 1.883294
v 0.572058 4.041052 1.878537
v -0.064554 4.041052 1.979596
v 0.903064 4.041052 1.567296
v 0.976750 4.041052 1.526944
v 0.983993 4.041052 1.510006
v 1.509903 4.041052 1.015493
v 1.525599 4.041052 0.964666
v 1.942865 4.041052 0.646404
v 1.983852 4.041052 0.407678
v 1.964388 4.041052 0.619809
v 2.044553 4.041052 -0.037945
v 2.075423 4.041052 -0.109153
v 1.747796 4.041052 -0.420094
v 1.760572 4.041052 -0.469399
v 1.641382 4.041052 -0.982730
v 1.600154 4.041052 -1.108035
v 1.327450 4.041052 -1.658434
v 1.297418 4.041052 -1.748067
v 1.163020 4.041052 -1.760276
v 1.282723 4.041052 -1.747710
v 0.672700 4.041052 -1.796340
v -0.048649 4.041052 -2.255046
v 0.114809 4.041052 -2.219958
v -0.752031 4.041052 -2.022471
v -0.662641 4.041052 -2.005033
v -0.893521 4.041052 -1.776513
v -1.176587 4.041052 -1.452370
v -1.396153 4.041052 -1.243464
v -1.168269 4.041052 -1.365233
v -1.536223 4.041052 -1.163456
v -1.500175 4.041052 -1.215448
v -1.593874 4.041052 -0.926904
v -1.742590 4.041052 -0.541070
v -1.746155 4.041052 -0.115136
v -1.792640 4.041052 -0.460731
v -1.777860 4.041052 0.042066
v -1.777499 4.041052 0.000213
v -1.847826 4.041052 0.554450
v -1.828476 4.041052 0.502191
v -1.662169 4.041052 1.021021
v -1.573769 4.041052 1.103999
v -1.076222 4.041052 1.409586
v -1.050902 4.041052 1.434776
v -0.730331 4.041052 1.637330
v -0.583453 4.041052 1.739074
v -0.513142 4.041052 1.762705
v -0.567094 4.041052 1.746270
v -0.153706 4.041052 1.895490
vn -0.2853 0.3696 0.8843
vn 0.1354 0.4583 0.8784
vn -0.7854 0.5439 0.2955
vn -0.8832 0.4125 0.2234
vn -0.8051 0.4641 0.3695
vn -0.8055 0.5233 -0.2780
vn -0.7046 0.4529 -0.5463
vn -0.6312 0.3963 -0.6667
vn -0.4747 0.3176 -0.8208
vn -0.2920 0.3716 -0.8813
vn 0.1734 0.4809 -0.8594
vn 0.4465 0.4460 -0.7757
vn 0.2994 0.3688 -0.8800
vn 0.9415 0.3243 -0.0913
vn 0.9101 0.3636 -0.1991
vn 0.8388 0.5438 -0.0285
vn 0.6887 0.4630 0.5580
vn 0.6617 0.3383 0.6691
vn 0.0173 -0.9997 -0.0181
vn 0.3648 0.2866 0.8859
vn 0.2091 0.2998 0.9308
vn 0.0928 0.2647 0.9599
vn 0.4768 -0.1204 0.8707
vn 0.5200 0.3222 0.7911
vn 0.6862 0.0087 0.7273
vn 0.7130 0.3514 0.6068
vn 0.6295 0.1233 0.7672
vn 0.8886 0.1761 0.4235
vn 0.9856 0.0075 0.1692
vn 0.9562 0.1054 0.2729
vn 0.9578 0.2643 -0.1131
vn 0.8915 0.3698 -0.2618
vn 0.9344 0.1697 -0.3131
vn 0.6097 0.2368 -0.7564
vn 0.0894 0.1561 -0.9837
vn 0.0767 0.0840 -0.9935
vn 0.4060 0.0027 -0.9139
vn -0.0254 0.0842 -0.9961
vn -0.7497 -0.0961 -0.6547
vn -0.7962 0.2012 -0.5706
vn -0.6856 0.1032 -0.7206
vn -0.7035 0.1812 -0.6872
vn -0.9312 -0.0635 -0.3589
vn -0.8788 0.1855 -0.4397
vn -0.9765 -0.2155 -0.0082
vn -0.9710 0.2217 -0.0895
vn -0.9406 0.2207 -0.2581
vn -0.7650 0.2207 0.6050
vn -0.6038 0.2031 0.7708
vn -0.5649 0.1259 0.8155
vn -0.4224 0.1789 0.8886
vn -0.3170 0.0988 0.9433
vn -0.5648 0.1906 0.8029
vn -0.0769 -0.9967 -0.0251
vn -0.1578 -0.9841 -0.0821
vn 0.0633 -0.9972 0.0387
vn -0.0327 -0.9871 -0.1565
vn 0.0924 -0.9048 0.4157
vn 0.1446 -0.8460 -0.5132
vn -0.1945 -0.9280 0.3178
vn -0.2430 -0.9344 0.2607
vn 0.3944 -0.8920 -0.2209
vn -0.0798 -0.9968 0.0018
vn 0.1718 -0.9851 0.0097
vn -0.0516 -0.9976 -0.0455
vn -0.1092 -0.9871 -0.1174
vn 0.0899 -0.9844 0.1514
vn 0.0446 -0.9704 0.2372
vn 0.0217 -0.9891 -0.1455
vn 0.1374 -0.9474 -0.2891
vn 0.0462 -0.9979 -0.0443
vn -0.1147 -0.9924 0.0450
vn 0.0751 -0.9969 -0.0246
vn 0.1340 0.2959 0.9458
vn 0.3836 0.2886 0.8772
vn 0.6903 0.3404 0.6384
vn 0.8314 0.4810 0.2783
vn 0.8160 0.5493 0.1798
vn 0.9309 0.3650 0.0160
vn 0.9257 0.3355 -0.1750
vn 0.3291 0.3743 -0.8669
vn 0.2320 0.4358 -0.8696
vn 0.2983 0.4749 -0.8279
vn -0.1216 0.3835 -0.9155
vn -0.5465 0.3153 -0.7759
vn -0.7651 0.3945 -0.5089
vn -0.6513 0.4417 -0.6170
vn -0.8399 0.5354 -0.0886
vn -0.8764 0.4786 0.0547
vn -0.7841 0.4263 0.4511
vn -0.7204 0.5648 0.4025
vn -0.0256 0.5036 0.8636
vn -0.4515 0.3541 0.8190
vn -0.0000 1.0000 -0.0000
vt 1.000000 0.995080
vt 1.000000 1.000000
vt 0.950000 1.000000
vt 0.950000 0.995080
vt 0.900000 1.000000
vt 0.900000 0.995080
vt 0.850000 1.000000
vt 0.850000 0.995080
vt 0.800000 1.000000
vt 0.800000 0.995080
vt 0.750000 1.000000
vt 0.750000 0.995080
vt 0.700000 1.000000
vt 0.700000 0.995080
vt 0.650000 1.000000
vt 0.650000 0.995080
vt 0.600000 1.000000
vt 0.600000 0.995080
vt 0.550000 1.000000
vt 0.550000 0.995080
vt 0.500000 1.000000
vt 0.500000 0.995080
vt 0.450000 1.000000
vt 0.450000 0.995080
vt 0.400000 1.000000
vt 0.400000 0.995080
vt 0.350000 1.000000
vt 0.350000 0.995080
vt 0.300000 1.000000
vt 0.300000 0.995080
vt 0.250000 1.000000
vt 0.250000 0.995080
vt 0.200000 1.000000
vt 0.200000 0.995080
vt 0.150000 1.000000
vt 0.150000 0.995080
vt 0.100000 1.000000
vt 0.100000 0.995080
vt 0.040652 0.181791
vt 0.065169 0.114599
vt 0.118117 0.074760
vt 0.181843 0.038139
vt 0.250128 0.024460
vt 0.317811 0.039829
vt 0.381972 0.068239
vt 0.428997 0.118643
vt 0.458886 0.184932
vt 0.479255 0.249721
vt 0.454679 0.317512
vt 0.428973 0.384553
vt 0.386742 0.434343
vt 0.318982 0.455433
vt 0.250510 0.474805
vt 0.178685 0.460002
vt 0.118571 0.431898
vt 0.068568 0.380723
vt 0.035149 0.319805
vt 0.029715 0.251118
vt 0.050000 1.000000
vt 0.050000 0.995080
vt -0.000000 1.000000
vt -0.000000 0.995080
vt 0.050000 0.916667
vt -0.000000 0.916667
vt -0.000000 0.847861
vt 0.042313 0.843623
vt 0.050000 0.843936
vt 0.091988 0.833333
vt 0.100000 0.831375
vt 0.100000 0.833333
vt 0.100000 0.916667
vt 0.101237 0.831451
vt 0.150000 0.824439
vt 0.150000 0.833333
vt 0.100000 0.831375
vt 0.150000 0.916667
vt 0.200000 0.833333
vt 0.150000 0.824439
vt 0.154614 0.823721
vt 0.200000 0.828653
vt 0.200000 0.916667
vt 0.216104 0.833333
vt 0.202285 0.829762
vt 0.244972 0.840885
vt 0.250000 0.842876
vt 0.250000 0.916667
vt 0.250000 0.842876
vt 0.295151 0.836554
vt 0.300000 0.839005
vt 0.300000 0.916667
vt 0.350000 0.846872
vt 0.350000 0.916667
vt 0.340320 0.846029
vt 0.400000 0.833333
vt 0.393499 0.833333
vt 0.400000 0.831148
vt 0.400000 0.916667
vt 0.350000 0.846872
vt 0.401212 0.831227
vt 0.411242 0.833333
vt 0.450000 0.840546
vt 0.450000 0.916667
vt 0.411242 0.833333
vt 0.500000 0.854778
vt 0.500000 0.916667
vt 0.490239 0.852330
vt 0.550000 0.841142
vt 0.550000 0.916667
vt 0.544072 0.841175
vt 0.600000 0.822847
vt 0.600000 0.833333
vt 0.568811 0.833333
vt 0.568811 0.833333
vt 0.600000 0.916667
vt 0.550000 0.841142
vt 0.609483 0.824869
vt 0.633132 0.833333
vt 0.643581 0.839117
vt 0.650000 0.838879
vt 0.650000 0.916667
vt 0.633132 0.833333
vt 0.700000 0.824531
vt 0.700000 0.833333
vt 0.668072 0.833333
vt 0.668072 0.833333
vt 0.700000 0.916667
vt 0.736212 0.833333
vt 0.700000 0.824531
vt 0.707915 0.823128
vt 0.746529 0.836983
vt 0.750000 0.837261
vt 0.750000 0.916667
vt 0.736212 0.833333
vt 0.800000 0.839210
vt 0.800000 0.916667
vt 0.750000 0.837261
vt 0.795412 0.838320
vt 0.840552 0.846861
vt 0.850000 0.845083
vt 0.850000 0.916667
vt 0.897027 0.838813
vt 0.900000 0.839002
vt 0.900000 0.916667
vt 0.850000 0.845083
vt 0.933642 0.833333
vt 0.950000 0.830244
vt 0.950000 0.833333
vt 0.950000 0.916667
vt 0.900000 0.839002
vt 0.933642 0.833333
vt 0.957030 0.833333
vt 0.950000 0.830244
vt 0.951711 0.831019
vt 0.957030 0.833333
vt 0.990401 0.843516
vt 1.000000 0.847861
vt 1.000000 0.916667
vt 0.324164 0.478254
vt 0.250000 0.490000
vt 0.391068 0.444164
vt 0.444164 0.391068
vt 0.478254 0.324164
vt 0.490000 0.250000
vt 0.478254 0.175836
vt 0.444164 0.108932
vt 0.391068 0.055836
vt 0.324164 0.021746
vt 0.250000 0.010000
vt 0.175836 0.021746
vt 0.108932 0.055836
vt 0.055836 0.108932
vt 0.021746 0.175836
vt 0.010000 0.250000
vt 0.021746 0.324164
vt 0.055836 0.391068
vt 0.108932 0.444164
vt 0.175836 0.478254
vt 0.238545 0.635437
vt 0.233249 0.632185
vt 0.232308 0.631302
vt 0.230332 0.626335
vt 0.230538 0.625779
vt 0.231076 0.620882
vt 0.231080 0.620436
vt 0.231414 0.619208
vt 0.230919 0.615530
vt 0.231452 0.614675
vt 0.233035 0.610568
vt 0.233648 0.608050
vt 0.234032 0.607497
vt 0.235139 0.607198
vt 0.237565 0.605902
vt 0.237476 0.604975
vt 0.240489 0.601525
vt 0.241995 0.598907
vt 0.242947 0.599092
vt 0.249482 0.596431
vt 0.251222 0.596805
vt 0.257160 0.601314
vt 0.262379 0.601697
vt 0.263653 0.601831
vt 0.263810 0.601827
vt 0.264129 0.602781
vt 0.267032 0.608640
vt 0.267471 0.609974
vt 0.268740 0.615438
vt 0.268604 0.615962
vt 0.272091 0.619272
vt 0.271762 0.620030
vt 0.271116 0.624773
vt 0.270909 0.627031
vt 0.270680 0.627314
vt 0.266238 0.630702
vt 0.266071 0.631243
vt 0.260474 0.636506
vt 0.260397 0.636687
vt 0.259612 0.637116
vt 0.256089 0.640429
vt 0.255002 0.640480
vt 0.249313 0.641505
vt 0.248364 0.640609
vt 0.244538 0.639196
vt 0.243964 0.639021
vt 0.243790 0.638945
vt 0.242226 0.637862
vt 0.238814 0.635706
s 0
usemtl Material.002
f 68/1/1 69/4/1 48/3/1 49/2/1
f 69/4/2 70/6/2 50/5/2 48/3/2
f 70/6/3 71/8/3 51/7/3 50/5/3
f 71/8/4 72/10/4 52/9/4 51/7/4
f 72/10/5 73/12/5 53/11/5 52/9/5
f 73/12/6 74/14/6 54/13/6 53/11/6
f 74/14/7 75/16/7 55/15/7 54/13/7
f 75/16/8 76/18/8 56/17/8 55/15/8
f 76/18/9 77/20/9 57/19/9 56/17/9
f 77/20/10 78/22/10 58/21/10 57/19/10
f 78/22/11 79/24/11 59/23/11 58/21/11
f 79/24/12 80/26/12 60/25/12 59/23/12
f 80/26/13 81/28/13 61/27/13 60/25/13
f 81/28/14 82/30/14 62/29/14 61/27/14
f 82/30/15 83/32/15 63/31/15 62/29/15
f 83/32/16 84/34/16 64/33/16 63/31/16
f 84/34/17 85/36/17 65/35/17 64/33/17
f 85/36/18 86/38/18 66/37/18 65/35/18
f 15/39/19 16/58/19 17/57/19 18/56/19 19/55/19 20/54/19 1/53/19 2/52/19 3/51/19 4/50/19 5/49/19 6/48/19 7/47/19 8/46/19 9/45/19 10/44/19 11/43/19 12/42/19 13/41/19 14/40/19
f 86/38/20 87/60/20 67/59/20 66/37/20
f 87/60/21 68/62/21 49/61/21 67/59/21
f 47/63/22 89/67/22 88/66/22 90/65/22 21/64/22
f 91/68/23 46/70/23 92/69/23
f 46/70/24 91/68/24 89/67/24 47/63/24 45/71/24
f 93/72/25 92/75/25 46/70/25 44/74/25 94/73/25
f 44/74/26 46/70/26 45/71/26 43/76/26
f 42/77/27 96/80/27 95/79/27 94/78/27 44/74/27
f 42/77/28 44/74/28 43/76/28 41/81/28
f 97/82/29 98/83/29 96/80/29 42/77/29
f 99/84/30 97/82/30 42/77/30 41/81/30 40/86/30 100/85/30
f 40/86/31 39/90/31 102/89/31 101/88/31 100/87/31
f 104/91/32 103/93/32 102/89/32 39/90/32 38/92/32
f 37/94/33 106/96/33 105/95/33
f 37/94/34 105/95/34 104/98/34 38/92/34 36/97/34
f 37/94/35 107/100/35 108/99/35 106/96/35
f 109/101/36 107/103/36 37/94/36 36/97/36 35/102/36
f 110/104/37 111/106/37 109/101/37 35/102/37 34/105/37
f 112/107/38 113/109/38 110/104/38 34/105/38 33/108/38
f 115/110/39 114/112/39 32/111/39
f 114/113/40 112/115/40 33/108/40 31/114/40 32/111/40
f 32/111/41 116/117/41 117/116/41 115/110/41
f 119/118/42 116/121/42 32/111/42 31/114/42 30/120/42 118/119/42
f 121/122/43 120/124/43 29/123/43
f 120/125/44 118/119/44 30/120/44 28/126/44 29/123/44
f 122/127/45 123/129/45 121/128/45 29/123/45
f 125/130/46 122/133/46 29/123/46 28/126/46 27/132/46 124/131/46
f 126/134/47 127/137/47 124/136/47 27/132/47 26/135/47
f 128/138/48 126/134/48 26/135/48 25/140/48 129/139/48
f 130/141/49 129/144/49 25/140/49 24/143/49 131/142/49
f 132/145/50 23/147/50 133/146/50
f 23/147/51 132/150/51 131/149/51 24/143/51 22/148/51
f 134/151/52 135/153/52 133/152/52 23/147/52
f 22/148/53 21/157/53 90/156/53 136/155/53 134/154/53 23/147/53
f 1/53/54 49/159/54 48/158/54 2/52/54
f 2/52/55 48/158/55 50/160/55 3/51/55
f 3/51/56 50/160/56 51/161/56 4/50/56
f 4/50/57 51/161/57 52/162/57 5/49/57
f 5/49/58 52/162/58 53/163/58 6/48/58
f 6/48/59 53/163/59 54/164/59 7/47/59
f 7/47/60 54/164/60 55/165/60 8/46/60
f 8/46/61 55/165/61 56/166/61 9/45/61
f 9/45/62 56/166/62 57/167/62 10/44/62
f 10/44/63 57/167/63 58/168/63 11/43/63
f 11/43/64 58/168/64 59/169/64 12/42/64
f 12/42/65 59/169/65 60/170/65 13/41/65
f 13/41/66 60/170/66 61/171/66 14/40/66
f 14/40/67 61/171/67 62/172/67 15/39/67
f 15/39/68 62/172/68 63/173/68 16/58/68
f 16/58/69 63/173/69 64/174/69 17/57/69
f 17/57/70 64/174/70 65/175/70 18/56/70
f 18/56/71 65/175/71 66/176/71 19/55/71
f 19/55/72 66/176/72 67/177/72 20/54/72
f 20/54/73 67/177/73 49/159/73 1/53/73
f 47/63/74 21/64/74 68/62/74 87/60/74
f 45/71/75 47/63/75 87/60/75 86/38/75
f 43/76/76 45/71/76 86/38/76 85/36/76
f 41/81/77 43/76/77 85/36/77 84/34/77
f 40/86/78 41/81/78 84/34/78 83/32/78
f 39/90/79 40/86/79 83/32/79 82/30/79
f 38/92/80 39/90/80 82/30/80 81/28/80
f 36/97/81 38/92/81 81/28/81 80/26/81
f 35/102/82 36/97/82 80/26/82 79/24/82
f 34/105/83 35/102/83 79/24/83 78/22/83
f 33/108/84 34/105/84 78/22/84 77/20/84
f 31/114/85 33/108/85 77/20/85 76/18/85
f 30/120/86 31/114/86 76/18/86 75/16/86
f 28/126/87 30/120/87 75/16/87 74/14/87
f 27/132/88 28/126/88 74/14/88 73/12/88
f 26/135/89 27/132/89 73/12/89 72/10/89
f 25/140/90 26/135/90 72/10/90 71/8/90
f 24/143/91 25/140/91 71/8/91 70/6/91
f 22/148/92 24/143/92 70/6/92 69/4/92
f 21/157/93 22/148/93 69/4/93 68/1/93
f 130/178/94 131/226/94 132/225/94 133/224/94 135/223/94 134/222/94 136/221/94 90/220/94 88/219/94 89/218/94 91/217/94 92/216/94 93/215/94 94/214/94 95/213/94 96/212/94 98/211/94 97/210/94 99/209/94 100/208/94 101/207/94 102/206/94 103/205/94 104/204/94 105/203/94 106/202/94 108/201/94 107/200/94 109/199/94 111/198/94 110/197/94 113/196/94 112/195/94 114/194/94 115/193/94 117/192/94 116/191/94 119/190/94 118/189/94 120/188/94 121/187/94 123/186/94 122/185/94 125/184/94 124/183/94 127/182/94 126/181/94 128/180/94 129/179/94
