# Blender v2.81 (sub 16) OBJ File: 'column.blend'
# www.blender.org
mtllib col_5.mtl
o column.005_Cylinder.011
v 0.000000 -1.000000 -2.003799
v -0.000000 11.433120 -1.280452
v 1.000000 -1.000000 -1.735850
v 0.638326 11.433120 -1.109413
v 1.732051 -1.000000 -1.003799
v 1.105613 11.433120 -0.642126
v 2.000000 -1.000000 -0.003799
v 1.276652 11.433120 -0.003799
v 1.732051 -1.000000 0.996201
v 1.105613 11.433120 0.634527
v 1.000000 -1.000000 1.728251
v 0.638326 11.433120 1.101814
v 0.000000 -1.000000 1.996201
v 0.000000 11.433120 1.272853
v -1.000000 -1.000000 1.728252
v -0.638326 11.433120 1.101814
v -1.732050 -1.000000 0.996201
v -1.105613 11.433120 0.634527
v -2.000000 -1.000000 -0.003799
v -1.276652 11.433120 -0.003799
v -1.732051 -1.000000 -1.003798
v -1.105614 11.433120 -0.642125
v -1.000001 -1.000000 -1.735850
v -0.638327 11.433120 -1.109412
v -0.020771 -1.136789 -2.376010
v -0.020771 0.045032 -2.376010
v 1.161051 -1.136789 -2.059342
v 1.161051 0.045032 -2.059342
v 2.026205 -1.136789 -1.194189
v 2.026205 0.045032 -1.194189
v 2.342873 -1.136789 -0.012367
v 2.342873 0.045032 -0.012367
v 2.026204 -1.136789 1.169455
v 2.026204 0.045032 1.169455
v 1.161051 -1.136789 2.034608
v 1.161051 0.045032 2.034608
v -0.020770 -1.136789 2.351276
v -0.020770 0.045032 2.351276
v -1.202592 -1.136789 2.034608
v -1.202592 0.045032 2.034608
v -2.067745 -1.136789 1.169455
v -2.067745 0.045032 1.169455
v -2.384414 -1.136789 -0.012366
v -2.384414 0.045032 -0.012366
v -2.067747 -1.136789 -1.194188
v -2.067747 0.045032 -1.194188
v -1.202594 -1.136789 -2.059341
v -1.202594 0.045032 -2.059341
v -2.734109 -2.210585 2.735656
v -2.734109 -1.066038 2.735656
v -2.734109 -2.210585 -2.869163
v -2.734109 -1.066038 -2.869163
v 2.870709 -2.210585 2.735656
v 2.870709 -1.066038 2.735656
v 2.870709 -2.210585 -2.869163
v 2.870709 -1.066038 -2.869163
v -0.020771 10.432733 -1.637636
v -0.020771 11.245367 -1.637636
v 0.791864 10.432733 -1.419892
v 0.791864 11.245367 -1.419892
v 1.386754 10.432733 -0.825002
v 1.386754 11.245367 -0.825002
v 1.604499 10.432733 -0.012367
v 1.604499 11.245367 -0.012367
v 1.386754 10.432733 0.800268
v 1.386754 11.245367 0.800268
v 0.791864 10.432733 1.395158
v 0.791864 11.245367 1.395158
v -0.020771 10.432733 1.612903
v -0.020771 11.245367 1.612903
v -0.833405 10.432733 1.395158
v -0.833405 11.245367 1.395158
v -1.428295 10.432733 0.800268
v -1.428295 11.245367 0.800268
v -1.646040 10.432733 -0.012366
v -1.646040 11.245367 -0.012366
v -1.428296 10.432733 -0.825001
v -1.428296 11.245367 -0.825001
v -0.833407 10.432733 -1.419891
v -0.833407 11.245367 -1.419891
v -1.888026 11.226462 1.889573
v -1.888026 12.025456 1.889573
v -1.888026 11.226462 -2.023079
v -1.888026 12.025456 -2.023079
v 2.024626 11.226462 1.889573
v 2.024626 12.025456 1.889573
v 2.024626 11.226462 -2.023079
v 2.024626 12.025456 -2.023079
v 1.674389 4.596698 -0.003799
v 1.703477 4.096735 -0.003799
v 1.429129 5.012185 0.821309
v 1.505005 3.506247 0.865116
v 0.832124 4.770997 1.437482
v 0.860942 3.780354 1.487395
v 0.000000 4.184712 1.694559
v 1.564152 4.325134 -0.474175
v 1.199267 4.326491 0.811586
v 0.805240 4.231488 1.188116
v 1.472036 4.317880 0.303774
vt 1.000000 0.500000
vt 1.000000 1.000000
vt 0.916667 1.000000
vt 0.916667 0.500000
vt 0.833333 1.000000
vt 0.833333 0.500000
vt 0.750000 1.000000
vt 0.750000 0.725072
vt 0.796382 0.714151
vt 0.750000 0.704966
vt 0.750000 0.500000
vt 0.666667 0.681219
vt 0.666667 0.500000
vt 0.583333 0.692243
vt 0.583333 0.500000
vt 0.500000 0.708504
vt 0.500000 0.500000
vt 0.500000 1.000000
vt 0.416667 1.000000
vt 0.416667 0.500000
vt 0.333333 1.000000
vt 0.333333 0.500000
vt 0.250000 1.000000
vt 0.250000 0.500000
vt 0.166667 1.000000
vt 0.166667 0.500000
vt 0.370000 0.457846
vt 0.250000 0.490000
vt 0.130000 0.457846
vt 0.042154 0.370000
vt 0.010000 0.250000
vt 0.042154 0.130000
vt 0.130000 0.042154
vt 0.250000 0.010000
vt 0.370000 0.042154
vt 0.457846 0.130000
vt 0.490000 0.250000
vt 0.457846 0.370000
vt 0.083333 1.000000
vt 0.083333 0.500000
vt 0.000000 1.000000
vt 0.000000 0.500000
vt 0.750000 0.490000
vt 0.870000 0.457846
vt 0.957846 0.370000
vt 0.990000 0.250000
vt 0.957846 0.130000
vt 0.870000 0.042154
vt 0.750000 0.010000
vt 0.630000 0.042154
vt 0.542154 0.130000
vt 0.510000 0.250000
vt 0.542154 0.370000
vt 0.630000 0.457846
vt 1.000000 0.500000
vt 1.000000 1.000000
vt 0.916667 1.000000
vt 0.916667 0.500000
vt 0.833333 1.000000
vt 0.833333 0.500000
vt 0.750000 1.000000
vt 0.750000 0.500000
vt 0.666667 1.000000
vt 0.666667 0.500000
vt 0.583333 1.000000
vt 0.583333 0.500000
vt 0.500000 1.000000
vt 0.500000 0.500000
vt 0.416667 1.000000
vt 0.416667 0.500000
vt 0.333333 1.000000
vt 0.333333 0.500000
vt 0.250000 1.000000
vt 0.250000 0.500000
vt 0.166667 1.000000
vt 0.166667 0.500000
vt 0.370000 0.457846
vt 0.250000 0.490000
vt 0.130000 0.457846
vt 0.042154 0.370000
vt 0.010000 0.250000
vt 0.042154 0.130000
vt 0.130000 0.042154
vt 0.250000 0.010000
vt 0.370000 0.042154
vt 0.457846 0.130000
vt 0.490000 0.250000
vt 0.457846 0.370000
vt 0.083333 1.000000
vt 0.083333 0.500000
vt 0.000000 1.000000
vt 0.000000 0.500000
vt 0.750000 0.490000
vt 0.870000 0.457846
vt 0.957846 0.370000
vt 0.990000 0.250000
vt 0.957846 0.130000
vt 0.870000 0.042154
vt 0.750000 0.010000
vt 0.630000 0.042154
vt 0.542154 0.130000
vt 0.510000 0.250000
vt 0.542154 0.370000
vt 0.630000 0.457846
vt 0.375000 0.000000
vt 0.625000 0.000000
vt 0.625000 0.250000
vt 0.375000 0.250000
vt 0.625000 0.500000
vt 0.375000 0.500000
vt 0.625000 0.750000
vt 0.375000 0.750000
vt 0.625000 1.000000
vt 0.375000 1.000000
vt 0.125000 0.500000
vt 0.125000 0.750000
vt 0.875000 0.500000
vt 0.875000 0.750000
vt 1.000000 0.500000
vt 1.000000 1.000000
vt 0.916667 1.000000
vt 0.916667 0.500000
vt 0.833333 1.000000
vt 0.833333 0.500000
vt 0.750000 1.000000
vt 0.750000 0.500000
vt 0.666667 1.000000
vt 0.666667 0.500000
vt 0.583333 1.000000
vt 0.583333 0.500000
vt 0.500000 1.000000
vt 0.500000 0.500000
vt 0.416667 1.000000
vt 0.416667 0.500000
vt 0.333333 1.000000
vt 0.333333 0.500000
vt 0.250000 1.000000
vt 0.250000 0.500000
vt 0.166667 1.000000
vt 0.166667 0.500000
vt 0.370000 0.457846
vt 0.250000 0.490000
vt 0.130000 0.457846
vt 0.042154 0.370000
vt 0.010000 0.250000
vt 0.042154 0.130000
vt 0.130000 0.042154
vt 0.250000 0.010000
vt 0.370000 0.042154
vt 0.457846 0.130000
vt 0.490000 0.250000
vt 0.457846 0.370000
vt 0.083333 1.000000
vt 0.083333 0.500000
vt 0.000000 1.000000
vt 0.000000 0.500000
vt 0.750000 0.490000
vt 0.870000 0.457846
vt 0.957846 0.370000
vt 0.990000 0.250000
vt 0.957846 0.130000
vt 0.870000 0.042154
vt 0.750000 0.010000
vt 0.630000 0.042154
vt 0.542154 0.130000
vt 0.510000 0.250000
vt 0.542154 0.370000
vt 0.630000 0.457846
vt 0.375000 0.000000
vt 0.625000 0.000000
vt 0.625000 0.250000
vt 0.375000 0.250000
vt 0.625000 0.500000
vt 0.375000 0.500000
vt 0.625000 0.750000
vt 0.375000 0.750000
vt 0.625000 1.000000
vt 0.375000 1.000000
vt 0.125000 0.500000
vt 0.125000 0.750000
vt 0.875000 0.500000
vt 0.875000 0.750000
vt 0.666667 0.715126
vt 0.583333 0.708773
vt 0.583333 0.732082
vt 0.666667 0.741781
vt 0.666667 1.000000
vt 0.583333 1.000000
vt 0.750000 0.714550
vn 0.2584 0.0561 -0.9644
vn 0.7060 0.0561 -0.7060
vn 0.9644 0.0561 -0.2584
vn 0.9644 0.0561 0.2584
vn 0.7060 0.0561 0.7060
vn 0.2584 0.0561 0.9644
vn -0.2584 0.0561 0.9644
vn -0.7060 0.0561 0.7060
vn -0.9644 0.0561 0.2584
vn -0.9644 0.0561 -0.2584
vn 0.0000 1.0000 0.0000
vn -0.7060 0.0561 -0.7060
vn -0.2584 0.0561 -0.9644
vn 0.0000 -1.0000 -0.0000
vn 0.2588 0.0000 -0.9659
vn 0.7071 0.0000 -0.7071
vn 0.9659 0.0000 -0.2588
vn 0.9659 0.0000 0.2588
vn 0.7071 0.0000 0.7071
vn 0.2588 0.0000 0.9659
vn -0.2588 0.0000 0.9659
vn -0.7071 0.0000 0.7071
vn -0.9659 0.0000 0.2588
vn -0.9659 0.0000 -0.2588
vn -0.7071 0.0000 -0.7071
vn -0.2588 0.0000 -0.9659
vn -1.0000 0.0000 0.0000
vn 0.0000 0.0000 -1.0000
vn 1.0000 0.0000 0.0000
vn 0.0000 0.0000 1.0000
vn 0.6767 0.3692 0.6371
vn 0.4270 0.5359 0.7284
vn 0.7508 0.6536 0.0950
vn 0.8417 0.3299 0.4275
vn 0.7249 -0.2846 0.6273
vn 0.8530 -0.5129 0.0962
vn 0.8693 -0.2597 0.4205
vn 0.5078 -0.3822 0.7721
usemtl None
s off
f 1/1/1 2/2/1 4/3/1 3/4/1
f 3/4/2 4/3/2 6/5/2 5/6/2
f 5/6/3 6/5/3 8/7/3 89/8/3 96/9/3 90/10/3 7/11/3
f 7/11/4 90/10/4 92/12/4 9/13/4
f 9/13/5 92/12/5 94/14/5 11/15/5
f 11/15/6 94/14/6 95/16/6 13/17/6
f 13/17/7 95/16/7 14/18/7 16/19/7 15/20/7
f 15/20/8 16/19/8 18/21/8 17/22/8
f 17/22/9 18/21/9 20/23/9 19/24/9
f 19/24/10 20/23/10 22/25/10 21/26/10
f 4/27/11 2/28/11 24/29/11 22/30/11 20/31/11 18/32/11 16/33/11 14/34/11 12/35/11 10/36/11 8/37/11 6/38/11
f 21/26/12 22/25/12 24/39/12 23/40/12
f 23/40/13 24/39/13 2/41/13 1/42/13
f 1/43/14 3/44/14 5/45/14 7/46/14 9/47/14 11/48/14 13/49/14 15/50/14 17/51/14 19/52/14 21/53/14 23/54/14
f 25/55/15 26/56/15 28/57/15 27/58/15
f 27/58/16 28/57/16 30/59/16 29/60/16
f 29/60/17 30/59/17 32/61/17 31/62/17
f 31/62/18 32/61/18 34/63/18 33/64/18
f 33/64/19 34/63/19 36/65/19 35/66/19
f 35/66/20 36/65/20 38/67/20 37/68/20
f 37/68/21 38/67/21 40/69/21 39/70/21
f 39/70/22 40/69/22 42/71/22 41/72/22
f 41/72/23 42/71/23 44/73/23 43/74/23
f 43/74/24 44/73/24 46/75/24 45/76/24
f 28/77/11 26/78/11 48/79/11 46/80/11 44/81/11 42/82/11 40/83/11 38/84/11 36/85/11 34/86/11 32/87/11 30/88/11
f 45/76/25 46/75/25 48/89/25 47/90/25
f 47/90/26 48/89/26 26/91/26 25/92/26
f 25/93/14 27/94/14 29/95/14 31/96/14 33/97/14 35/98/14 37/99/14 39/100/14 41/101/14 43/102/14 45/103/14 47/104/14
f 49/105/27 50/106/27 52/107/27 51/108/27
f 51/108/28 52/107/28 56/109/28 55/110/28
f 55/110/29 56/109/29 54/111/29 53/112/29
f 53/112/30 54/111/30 50/113/30 49/114/30
f 51/115/14 55/110/14 53/112/14 49/116/14
f 56/109/11 52/117/11 50/118/11 54/111/11
f 57/119/15 58/120/15 60/121/15 59/122/15
f 59/122/16 60/121/16 62/123/16 61/124/16
f 61/124/17 62/123/17 64/125/17 63/126/17
f 63/126/18 64/125/18 66/127/18 65/128/18
f 65/128/19 66/127/19 68/129/19 67/130/19
f 67/130/20 68/129/20 70/131/20 69/132/20
f 69/132/21 70/131/21 72/133/21 71/134/21
f 71/134/22 72/133/22 74/135/22 73/136/22
f 73/136/23 74/135/23 76/137/23 75/138/23
f 75/138/24 76/137/24 78/139/24 77/140/24
f 60/141/11 58/142/11 80/143/11 78/144/11 76/145/11 74/146/11 72/147/11 70/148/11 68/149/11 66/150/11 64/151/11 62/152/11
f 77/140/25 78/139/25 80/153/25 79/154/25
f 79/154/26 80/153/26 58/155/26 57/156/26
f 57/157/14 59/158/14 61/159/14 63/160/14 65/161/14 67/162/14 69/163/14 71/164/14 73/165/14 75/166/14 77/167/14 79/168/14
f 81/169/27 82/170/27 84/171/27 83/172/27
f 83/172/28 84/171/28 88/173/28 87/174/28
f 87/174/29 88/173/29 86/175/29 85/176/29
f 85/176/30 86/175/30 82/177/30 81/178/30
f 83/179/14 87/174/14 85/176/14 81/180/14
f 88/173/11 84/181/11 82/182/11 86/175/11
f 94/14/31 92/12/31 97/183/31 98/184/31
f 93/185/5 91/186/5 10/187/5 12/188/5
f 95/16/32 94/14/32 98/184/32
f 93/185/6 12/188/6 14/18/6 95/16/6
f 90/10/33 96/9/33 99/189/33
f 92/12/34 90/10/34 99/189/34 97/183/34
f 91/186/4 89/8/4 8/7/4 10/187/4
f 98/184/35 97/183/35 91/186/35 93/185/35
f 99/189/36 96/9/36 89/8/36
f 97/183/37 99/189/37 89/8/37 91/186/37
f 98/184/38 93/185/38 95/16/38
