# Blender v2.81 (sub 16) OBJ File: 'column.blend'
# www.blender.org
mtllib col_3.mtl
o column.003_Cylinder.009
v 0.000000 -1.000000 -2.025293
v 1.000000 -1.000000 -1.757344
v 1.732051 -1.000000 -1.025293
v 2.000000 -1.000000 -0.025293
v 1.732051 -1.000000 0.974707
v 1.000000 -1.000000 1.706757
v 0.000000 -1.000000 1.974707
v -1.000000 -1.000000 1.706758
v -1.732050 -1.000000 0.974707
v -2.000000 -1.000000 -0.025292
v -1.732051 -1.000000 -1.025292
v -1.000001 -1.000000 -1.757344
v -0.020771 -1.136789 -2.397504
v -0.020771 0.045032 -2.397504
v 1.161051 -1.136789 -2.080836
v 1.161051 0.045032 -2.080836
v 2.026205 -1.136789 -1.215683
v 2.026205 0.045032 -1.215683
v 2.342873 -1.136789 -0.033861
v 2.342873 0.045032 -0.033861
v 2.026204 -1.136789 1.147961
v 2.026204 0.045032 1.147961
v 1.161051 -1.136789 2.013114
v 1.161051 0.045032 2.013114
v -0.020770 -1.136789 2.329782
v -0.020770 0.045032 2.329782
v -1.202592 -1.136789 2.013114
v -1.202592 0.045032 2.013114
v -2.067745 -1.136789 1.147961
v -2.067745 0.045032 1.147961
v -2.384414 -1.136789 -0.033860
v -2.384414 0.045032 -0.033860
v -2.067747 -1.136789 -1.215681
v -2.067747 0.045032 -1.215681
v -1.202594 -1.136789 -2.080835
v -1.202594 0.045032 -2.080835
v -2.734109 -2.210585 2.714162
v -2.734109 -1.066038 2.714162
v -2.734109 -2.210585 -2.890656
v -2.734109 -1.066038 -2.890656
v 2.870709 -2.210585 2.714162
v 2.870709 -1.066038 2.714162
v 2.870709 -2.210585 -2.890656
v 2.870709 -1.066038 -2.890656
v -0.000000 7.734967 -1.517101
v -0.741104 7.899991 -1.308921
v -1.439953 8.626251 -0.025293
v 1.450131 8.451321 -0.025293
v 0.743383 7.821618 -1.312871
v -1.265263 8.264509 -0.755792
v 1.271922 8.132330 -0.759638
v -1.298590 8.355215 -0.611720
v -0.929424 1.426214 -1.635100
v -1.848443 1.605011 -0.025292
v -0.927890 1.478878 1.581861
v 0.937899 1.134825 1.599195
v 1.886864 0.944608 -0.025293
v 0.938928 1.099436 -1.651565
v -0.000000 1.266429 -1.893435
v -1.604119 1.539126 -0.951430
v -1.602414 1.572937 0.899862
v 0.000000 1.331326 1.839072
v 1.631043 1.004728 0.916390
v 1.632646 0.972920 -0.967902
v 1.805847 0.966232 0.272374
v -1.148017 1.498670 1.360161
v 1.688330 0.961667 -0.762529
v -0.660536 1.379505 -1.709866
v 0.000000 7.806110 1.462375
v -0.738815 7.978648 1.254372
v -1.261278 8.343581 0.702907
v 1.269132 8.187717 0.707440
v 0.741567 7.884058 1.259138
v -1.334456 8.539970 0.387161
v 1.317404 8.305820 0.501643
v -0.548322 7.933947 1.308015
v -1.106492 8.237959 0.866087
v -0.000000 2.787162 -1.804960
v -0.000000 5.214591 -1.663734
v 0.822937 5.086830 -1.450662
v 0.899405 2.458118 -1.583108
v 1.485542 3.892545 -0.882971
v 1.541758 2.776801 -0.915428
v 1.775064 2.866264 -0.025293
v -1.477124 4.059638 -0.878110
v -0.827940 4.914863 -1.459326
v -0.874322 3.320407 -1.539662
v 0.753087 3.937374 -1.098441
v -0.587420 4.049950 -1.481021
v 1.265151 3.536328 -1.006502
v 0.081197 3.885738 -1.281477
vt 1.000000 0.500000
vt 1.000000 0.591145
vt 0.916667 0.584429
vt 0.916667 0.500000
vt 0.833333 0.579341
vt 0.833333 0.500000
vt 0.815133 0.578889
vt 0.750000 0.578203
vt 0.750000 0.500000
vt 0.723672 0.579072
vt 0.666667 0.580620
vt 0.666667 0.500000
vt 0.583333 0.585852
vt 0.583333 0.500000
vt 0.500000 0.593755
vt 0.500000 0.500000
vt 0.416667 0.599688
vt 0.416667 0.500000
vt 0.389562 0.600484
vt 0.333333 0.603471
vt 0.333333 0.500000
vt 0.250000 0.604761
vt 0.250000 0.500000
vt 0.166667 0.602111
vt 0.166667 0.500000
vt 0.083333 0.597571
vt 0.083333 0.500000
vt 0.059125 0.595692
vt 0.000000 0.591145
vt 0.000000 0.500000
vt 0.750000 0.490000
vt 0.870000 0.457846
vt 0.957846 0.370000
vt 0.990000 0.250000
vt 0.957846 0.130000
vt 0.870000 0.042154
vt 0.750000 0.010000
vt 0.630000 0.042154
vt 0.542154 0.130000
vt 0.510000 0.250000
vt 0.542154 0.370000
vt 0.630000 0.457846
vt 1.000000 0.500000
vt 1.000000 1.000000
vt 0.916667 1.000000
vt 0.916667 0.500000
vt 0.833333 1.000000
vt 0.833333 0.500000
vt 0.750000 1.000000
vt 0.750000 0.500000
vt 0.666667 1.000000
vt 0.666667 0.500000
vt 0.583333 1.000000
vt 0.583333 0.500000
vt 0.500000 1.000000
vt 0.500000 0.500000
vt 0.416667 1.000000
vt 0.416667 0.500000
vt 0.333333 1.000000
vt 0.333333 0.500000
vt 0.250000 1.000000
vt 0.250000 0.500000
vt 0.166667 1.000000
vt 0.166667 0.500000
vt 0.370000 0.457846
vt 0.250000 0.490000
vt 0.130000 0.457846
vt 0.042154 0.370000
vt 0.010000 0.250000
vt 0.042154 0.130000
vt 0.130000 0.042154
vt 0.250000 0.010000
vt 0.370000 0.042154
vt 0.457846 0.130000
vt 0.490000 0.250000
vt 0.457846 0.370000
vt 0.083333 1.000000
vt 0.083333 0.500000
vt 0.000000 1.000000
vt 0.000000 0.500000
vt 0.750000 0.490000
vt 0.870000 0.457846
vt 0.957846 0.370000
vt 0.990000 0.250000
vt 0.957846 0.130000
vt 0.870000 0.042154
vt 0.750000 0.010000
vt 0.630000 0.042154
vt 0.542154 0.130000
vt 0.510000 0.250000
vt 0.542154 0.370000
vt 0.630000 0.457846
vt 0.375000 0.000000
vt 0.625000 0.000000
vt 0.625000 0.250000
vt 0.375000 0.250000
vt 0.625000 0.500000
vt 0.375000 0.500000
vt 0.625000 0.750000
vt 0.375000 0.750000
vt 0.625000 1.000000
vt 0.375000 1.000000
vt 0.125000 0.500000
vt 0.125000 0.750000
vt 0.875000 0.500000
vt 0.875000 0.750000
vt 0.297685 0.883652
vt 0.689646 0.874235
vt 0.750000 0.880086
vt 0.250000 0.887121
vt 0.916667 0.639069
vt 0.833333 0.651885
vt 0.750000 0.655482
vt 0.666667 0.869486
vt 0.583333 0.857274
vt 0.500000 0.854139
vt 0.416667 0.861078
vt 0.358236 0.871506
vt 0.333333 0.875754
vt 0.182850 0.876222
vt 0.166667 0.872574
vt 0.166667 0.703474
vt 0.083333 0.673746
vt 1.000000 0.652301
vt 0.438239 0.859280
vt 0.000000 0.652301
vt 0.083333 0.857915
vt 0.916667 0.854763
vt 0.000000 0.851278
vt 0.833333 0.867258
vt 0.916667 0.699493
vt 0.833333 0.678952
vt 0.833333 0.696754
vt 0.916667 0.744783
vt 0.083333 0.705258
vt 0.000000 0.696848
vt 0.000000 0.749921
vt 0.083333 0.737867
vt 1.000000 0.696848
vt 1.000000 0.749921
vt 1.000000 0.851278
vn 0.2584 0.0561 -0.9644
vn 0.7060 0.0561 -0.7060
vn 0.9644 0.0561 -0.2584
vn 0.9644 0.0561 0.2584
vn 0.7060 0.0561 0.7060
vn 0.2584 0.0561 0.9644
vn -0.2584 0.0561 0.9644
vn -0.7060 0.0561 0.7060
vn -0.9644 0.0561 0.2584
vn -0.9644 0.0561 -0.2584
vn -0.7060 0.0561 -0.7060
vn -0.2584 0.0561 -0.9644
vn 0.0000 -1.0000 -0.0000
vn 0.2588 0.0000 -0.9659
vn 0.7071 0.0000 -0.7071
vn 0.9659 0.0000 -0.2588
vn 0.9659 0.0000 0.2588
vn 0.7071 0.0000 0.7071
vn 0.2588 0.0000 0.9659
vn -0.2588 0.0000 0.9659
vn -0.7071 0.0000 0.7071
vn -0.9659 0.0000 0.2588
vn -0.9659 0.0000 -0.2588
vn 0.0000 1.0000 0.0000
vn -0.7071 0.0000 -0.7071
vn -0.2588 0.0000 -0.9659
vn -1.0000 0.0000 0.0000
vn 0.0000 0.0000 -1.0000
vn 1.0000 0.0000 0.0000
vn 0.0000 0.0000 1.0000
vn 0.0665 0.9683 0.2408
vn 0.0539 0.8548 0.5162
vn 0.0436 0.8527 -0.5206
vn 0.0521 0.8547 0.5165
vn 0.0542 0.9058 -0.4203
vn 0.5452 0.2440 -0.8020
vn 0.9147 0.3007 -0.2700
vn 0.0886 0.2860 -0.9541
vn -0.5372 0.2754 -0.7972
vn 0.2915 0.3548 -0.8883
vn -0.5569 -0.1343 -0.8196
vn 0.2658 -0.1946 -0.9442
vn 0.0113 -0.1606 -0.9870
vn 0.2331 -0.2753 -0.9327
vn 0.7656 -0.2714 -0.5832
usemtl None
s off
f 1/1/1 59/2/1 58/3/1 2/4/1
f 2/4/2 58/3/2 64/5/2 3/6/2
f 3/6/3 64/5/3 67/7/3 57/8/3 4/9/3
f 4/9/4 57/8/4 65/10/4 63/11/4 5/12/4
f 5/12/5 63/11/5 56/13/5 6/14/5
f 6/14/6 56/13/6 62/15/6 7/16/6
f 7/16/7 62/15/7 55/17/7 8/18/7
f 8/18/8 55/17/8 66/19/8 61/20/8 9/21/8
f 9/21/9 61/20/9 54/22/9 10/23/9
f 10/23/10 54/22/10 60/24/10 11/25/10
f 11/25/11 60/24/11 53/26/11 12/27/11
f 12/27/12 53/26/12 68/28/12 59/29/12 1/30/12
f 1/31/13 2/32/13 3/33/13 4/34/13 5/35/13 6/36/13 7/37/13 8/38/13 9/39/13 10/40/13 11/41/13 12/42/13
f 13/43/14 14/44/14 16/45/14 15/46/14
f 15/46/15 16/45/15 18/47/15 17/48/15
f 17/48/16 18/47/16 20/49/16 19/50/16
f 19/50/17 20/49/17 22/51/17 21/52/17
f 21/52/18 22/51/18 24/53/18 23/54/18
f 23/54/19 24/53/19 26/55/19 25/56/19
f 25/56/20 26/55/20 28/57/20 27/58/20
f 27/58/21 28/57/21 30/59/21 29/60/21
f 29/60/22 30/59/22 32/61/22 31/62/22
f 31/62/23 32/61/23 34/63/23 33/64/23
f 16/65/24 14/66/24 36/67/24 34/68/24 32/69/24 30/70/24 28/71/24 26/72/24 24/73/24 22/74/24 20/75/24 18/76/24
f 33/64/25 34/63/25 36/77/25 35/78/25
f 35/78/26 36/77/26 14/79/26 13/80/26
f 13/81/13 15/82/13 17/83/13 19/84/13 21/85/13 23/86/13 25/87/13 27/88/13 29/89/13 31/90/13 33/91/13 35/92/13
f 37/93/27 38/94/27 40/95/27 39/96/27
f 39/96/28 40/95/28 44/97/28 43/98/28
f 43/98/29 44/97/29 42/99/29 41/100/29
f 41/100/30 42/99/30 38/101/30 37/102/30
f 39/103/13 43/98/13 41/100/13 37/104/13
f 44/97/24 40/105/24 38/106/24 42/99/24
f 74/107/31 75/108/31 48/109/31 47/110/31
f 64/5/2 58/3/2 81/111/2 83/112/2
f 63/11/4 65/10/4 57/8/4 84/113/4 48/109/4 75/108/4 72/114/4
f 62/15/6 56/13/6 73/115/6 69/116/6
f 61/20/8 66/19/8 55/17/8 70/117/8 77/118/8 71/119/8
f 60/24/10 54/22/10 47/110/10 52/120/10 50/121/10 85/122/10
f 53/26/11 60/24/11 85/122/11 87/123/11
f 58/3/1 59/2/1 78/124/1 81/111/1
f 57/8/3 67/7/3 64/5/3 83/112/3 84/113/3
f 56/13/5 63/11/5 72/114/5 73/115/5
f 55/17/7 62/15/7 69/116/7 76/125/7 70/117/7
f 54/22/9 61/20/9 71/119/9 74/107/9 47/110/9
f 59/29/12 68/28/12 53/26/12 87/123/12 78/126/12
f 71/119/32 77/118/32 70/117/32 76/125/32 69/116/32 73/115/32
f 46/127/33 49/128/33 45/129/33
f 74/107/34 71/119/34 73/115/34 72/114/34 75/108/34
f 47/110/35 48/109/35 51/130/35 50/121/35 52/120/35
f 50/121/33 51/130/33 49/128/33 46/127/33
f 83/112/36 81/111/36 88/131/36 90/132/36
f 82/133/2 80/134/2 49/128/2 51/130/2
f 84/113/37 83/112/37 90/132/37
f 82/133/3 51/130/3 48/109/3 84/113/3
f 78/126/38 87/123/38 89/135/38 91/136/38
f 79/137/12 86/138/12 46/127/12 45/129/12
f 87/123/39 85/122/39 89/135/39
f 86/138/11 85/122/11 50/121/11 46/127/11
f 81/111/40 78/124/40 91/139/40 88/131/40
f 80/134/1 79/140/1 45/141/1 49/128/1
f 89/135/41 85/122/41 86/138/41
f 90/132/42 88/131/42 80/134/42 82/133/42
f 91/136/43 89/135/43 86/138/43 79/137/43
f 88/131/44 91/139/44 79/140/44 80/134/44
f 90/132/45 82/133/45 84/113/45
