# Blender v2.81 (sub 16) OBJ File: 'column.blend'
# www.blender.org
mtllib col_2.mtl
o column.002_Cylinder.008
v -0.000000 11.433120 -1.306234
v 0.638326 11.433120 -1.135195
v 1.105613 11.433120 -0.667908
v 1.276652 11.433120 -0.029582
v 1.105613 11.433120 0.608744
v 0.638326 11.433120 1.076031
v 0.000000 11.433120 1.247071
v -0.638326 11.433120 1.076032
v -1.105613 11.433120 0.608745
v -1.276652 11.433120 -0.029581
v -1.105614 11.433120 -0.667907
v -0.638327 11.433120 -1.135195
v -0.020771 10.432733 -1.663419
v -0.020771 11.245367 -1.663419
v 0.791864 10.432733 -1.445674
v 0.791864 11.245367 -1.445674
v 1.386754 10.432733 -0.850784
v 1.386754 11.245367 -0.850784
v 1.604499 10.432733 -0.038149
v 1.604499 11.245367 -0.038149
v 1.386754 10.432733 0.774485
v 1.386754 11.245367 0.774485
v 0.791864 10.432733 1.369375
v 0.791864 11.245367 1.369375
v -0.020771 10.432733 1.587120
v -0.020771 11.245367 1.587120
v -0.833405 10.432733 1.369375
v -0.833405 11.245367 1.369375
v -1.428295 10.432733 0.774486
v -1.428295 11.245367 0.774486
v -1.646040 10.432733 -0.038149
v -1.646040 11.245367 -0.038149
v -1.428296 10.432733 -0.850783
v -1.428296 11.245367 -0.850783
v -0.833407 10.432733 -1.445674
v -0.833407 11.245367 -1.445674
v -1.888026 11.226462 1.863790
v -1.888026 12.025456 1.863790
v -1.888026 11.226462 -2.048862
v -1.888026 12.025456 -2.048862
v 2.024626 11.226462 1.863790
v 2.024626 12.025456 1.863790
v 2.024626 11.226462 -2.048862
v 2.024626 12.025456 -2.048862
v -0.000000 0.650546 -1.933555
v -0.947869 0.792140 -1.671336
v -1.865587 1.310324 -0.029581
v -0.914313 1.945628 1.554055
v 0.921019 1.715096 1.565670
v 1.883091 1.009468 -0.029582
v 0.952304 0.639628 -1.679021
v -1.630261 1.020268 -0.970812
v -1.596454 1.691231 0.892132
v 0.000000 1.956857 1.798391
v 1.615301 1.317179 0.903012
v 1.642617 0.775028 -0.977947
v 1.810971 0.944114 -0.312929
v 0.976572 1.681052 1.512822
v -1.817422 1.361851 0.138987
v -0.233052 0.675674 -1.869647
v 1.340198 0.728587 -1.284057
v 1.662354 1.259656 0.739898
v 0.022118 1.948385 1.792957
v -1.689362 1.082787 -0.736670
v -1.147155 0.848978 -1.467532
v -1.383212 5.923532 -0.828179
v -1.291083 5.690775 -0.612730
v -1.431321 4.968699 -0.855954
v 0.833832 4.712286 -1.473822
v -0.000000 4.789219 -1.692770
v -0.161498 5.249154 -1.290590
v -0.000000 5.946301 -1.625453
v -1.611577 5.676329 -0.029581
v -0.796450 5.997377 -1.409072
v -0.817066 5.573845 -1.096041
v -0.835942 4.639801 -1.477473
vt 0.083333 0.572071
vt 0.020443 0.567388
vt 1.000000 0.566377
vt 0.916667 0.565938
vt 0.869871 0.569515
vt 0.833333 0.571383
vt 0.775048 0.578183
vt 0.750000 0.580811
vt 0.681384 0.590872
vt 0.666667 0.593186
vt 0.590080 0.607819
vt 0.583333 0.609188
vt 0.502019 0.618570
vt 0.500000 0.618910
vt 0.416667 0.618459
vt 0.333333 0.608228
vt 0.265101 0.594982
vt 0.250000 0.592910
vt 0.187296 0.583760
vt 0.166667 0.581245
vt 0.107530 0.574357
vt 0.370000 0.457846
vt 0.250000 0.490000
vt 0.130000 0.457846
vt 0.042154 0.370000
vt 0.010000 0.250000
vt 0.042154 0.130000
vt 0.130000 0.042154
vt 0.250000 0.010000
vt 0.370000 0.042154
vt 0.457846 0.130000
vt 0.490000 0.250000
vt 0.457846 0.370000
vt 1.000000 0.500000
vt 1.000000 1.000000
vt 0.916667 1.000000
vt 0.916667 0.500000
vt 0.833333 1.000000
vt 0.833333 0.500000
vt 0.750000 1.000000
vt 0.750000 0.500000
vt 0.666667 1.000000
vt 0.666667 0.500000
vt 0.583333 1.000000
vt 0.583333 0.500000
vt 0.500000 1.000000
vt 0.500000 0.500000
vt 0.416667 1.000000
vt 0.416667 0.500000
vt 0.333333 1.000000
vt 0.333333 0.500000
vt 0.250000 1.000000
vt 0.250000 0.500000
vt 0.166667 1.000000
vt 0.166667 0.500000
vt 0.370000 0.457846
vt 0.250000 0.490000
vt 0.130000 0.457846
vt 0.042154 0.370000
vt 0.010000 0.250000
vt 0.042154 0.130000
vt 0.130000 0.042154
vt 0.250000 0.010000
vt 0.370000 0.042154
vt 0.457846 0.130000
vt 0.490000 0.250000
vt 0.457846 0.370000
vt 0.083333 1.000000
vt 0.083333 0.500000
vt 0.000000 1.000000
vt 0.000000 0.500000
vt 0.750000 0.490000
vt 0.870000 0.457846
vt 0.957846 0.370000
vt 0.990000 0.250000
vt 0.957846 0.130000
vt 0.870000 0.042154
vt 0.750000 0.010000
vt 0.630000 0.042154
vt 0.542154 0.130000
vt 0.510000 0.250000
vt 0.542154 0.370000
vt 0.630000 0.457846
vt 0.375000 0.000000
vt 0.625000 0.000000
vt 0.625000 0.250000
vt 0.375000 0.250000
vt 0.625000 0.500000
vt 0.375000 0.500000
vt 0.625000 0.750000
vt 0.375000 0.750000
vt 0.625000 1.000000
vt 0.375000 1.000000
vt 0.125000 0.500000
vt 0.125000 0.750000
vt 0.875000 0.500000
vt 0.875000 0.750000
vt 1.000000 0.732814
vt 0.916667 0.729721
vt 0.833333 1.000000
vt 0.750000 1.000000
vt 0.666667 1.000000
vt 0.583333 1.000000
vt 0.500000 1.000000
vt 0.416667 1.000000
vt 0.333333 1.000000
vt 0.250000 1.000000
vt 0.250000 0.768490
vt 0.000000 0.566377
vt 0.083333 0.726806
vt 0.000000 0.732814
vt 0.916667 1.000000
vt 0.166667 0.740032
vt 0.083333 0.768438
vt 0.000000 0.752388
vt 0.083333 0.781401
vt 0.000000 0.779347
vt 0.083333 1.000000
vt 0.000000 1.000000
vt 0.166667 0.774218
vt 0.166667 0.778431
vt 0.166667 1.000000
vt 1.000000 0.752388
vt 1.000000 0.779347
vt 1.000000 1.000000
vn -0.0845 -0.9428 0.3225
vn 0.0000 1.0000 0.0000
vn 0.2588 0.0000 -0.9659
vn 0.7071 0.0000 -0.7071
vn 0.9659 0.0000 -0.2588
vn 0.9659 0.0000 0.2588
vn 0.7071 0.0000 0.7071
vn 0.2588 0.0000 0.9659
vn -0.2588 0.0000 0.9659
vn -0.7071 0.0000 0.7071
vn -0.9659 0.0000 0.2588
vn -0.9659 0.0000 -0.2588
vn -0.7071 0.0000 -0.7071
vn -0.2588 0.0000 -0.9659
vn 0.0000 -1.0000 0.0000
vn -1.0000 0.0000 0.0000
vn 0.0000 0.0000 -1.0000
vn 1.0000 0.0000 0.0000
vn 0.0000 0.0000 1.0000
vn 0.2584 0.0561 -0.9644
vn 0.9644 0.0561 -0.2584
vn 0.7060 0.0561 0.7060
vn -0.2584 0.0561 0.9644
vn -0.9644 0.0561 0.2584
vn -0.2584 0.0561 -0.9644
vn 0.7060 0.0561 -0.7060
vn 0.9644 0.0561 0.2584
vn 0.2584 0.0561 0.9644
vn -0.7060 0.0561 0.7060
vn -0.9644 0.0561 -0.2584
vn -0.7060 0.0561 -0.7060
vn -0.1827 0.4675 -0.8649
vn -0.3468 -0.4266 -0.8353
vn -0.6079 0.3307 -0.7219
vn -0.6082 -0.5370 -0.5845
vn 0.2434 0.6855 -0.6862
vn -0.3446 -0.3404 -0.8748
vn -0.8352 0.3142 -0.4513
vn -0.6765 -0.6263 -0.3873
usemtl None
s off
f 46/1/1 60/2/1 45/3/1 51/4/1 61/5/1 56/6/1 57/7/1 50/8/1 62/9/1 55/10/1 58/11/1 49/12/1 63/13/1 54/14/1 48/15/1 53/16/1 59/17/1 47/18/1 64/19/1 52/20/1 65/21/1
f 2/22/2 1/23/2 12/24/2 11/25/2 10/26/2 9/27/2 8/28/2 7/29/2 6/30/2 5/31/2 4/32/2 3/33/2
f 13/34/3 14/35/3 16/36/3 15/37/3
f 15/37/4 16/36/4 18/38/4 17/39/4
f 17/39/5 18/38/5 20/40/5 19/41/5
f 19/41/6 20/40/6 22/42/6 21/43/6
f 21/43/7 22/42/7 24/44/7 23/45/7
f 23/45/8 24/44/8 26/46/8 25/47/8
f 25/47/9 26/46/9 28/48/9 27/49/9
f 27/49/10 28/48/10 30/50/10 29/51/10
f 29/51/11 30/50/11 32/52/11 31/53/11
f 31/53/12 32/52/12 34/54/12 33/55/12
f 16/56/2 14/57/2 36/58/2 34/59/2 32/60/2 30/61/2 28/62/2 26/63/2 24/64/2 22/65/2 20/66/2 18/67/2
f 33/55/13 34/54/13 36/68/13 35/69/13
f 35/69/14 36/68/14 14/70/14 13/71/14
f 13/72/15 15/73/15 17/74/15 19/75/15 21/76/15 23/77/15 25/78/15 27/79/15 29/80/15 31/81/15 33/82/15 35/83/15
f 37/84/16 38/85/16 40/86/16 39/87/16
f 39/87/17 40/86/17 44/88/17 43/89/17
f 43/89/18 44/88/18 42/90/18 41/91/18
f 41/91/19 42/90/19 38/92/19 37/93/19
f 39/94/15 43/89/15 41/91/15 37/95/15
f 44/88/2 40/96/2 38/97/2 42/90/2
f 51/4/20 45/3/20 70/98/20 69/99/20
f 50/8/21 57/7/21 56/6/21 3/100/21 4/101/21
f 49/12/22 58/11/22 55/10/22 5/102/22 6/103/22
f 48/15/23 54/14/23 7/104/23 8/105/23
f 47/18/24 59/17/24 53/16/24 9/106/24 10/107/24 73/108/24
f 45/109/25 60/2/25 46/1/25 76/110/25 70/111/25
f 56/6/26 61/5/26 51/4/26 69/99/26 2/112/26 3/100/26
f 55/10/27 62/9/27 50/8/27 4/101/27 5/102/27
f 54/14/28 49/12/28 6/103/28 7/104/28
f 54/14/28 63/13/28 49/12/28
f 53/16/29 48/15/29 8/105/29 9/106/29
f 52/20/30 64/19/30 47/18/30 73/108/30 68/113/30
f 46/1/31 65/21/31 52/20/31 68/113/31 76/110/31
f 70/111/32 76/110/32 75/114/32 71/115/32
f 71/115/33 75/114/33 74/116/33 72/117/33
f 72/117/25 74/116/25 12/118/25 1/119/25
f 76/110/34 68/113/34 67/120/34 75/114/34
f 75/114/35 67/120/35 66/121/35 74/116/35
f 74/116/31 66/121/31 11/122/31 12/118/31
f 69/99/36 70/98/36 71/123/36
f 71/123/37 72/124/37 69/99/37
f 72/124/20 1/125/20 2/112/20 69/99/20
f 68/113/38 73/108/38 67/120/38
f 67/120/39 73/108/39 66/121/39
f 66/121/30 73/108/30 10/107/30 11/122/30
