# Blender v2.81 (sub 16) OBJ File: 'column.blend'
# www.blender.org
mtllib col_4.mtl
o column.004_Cylinder.010
v -0.000000 7.734967 -1.509458
v -0.741104 7.899991 -1.301279
v -1.439953 8.626251 -0.017650
v -0.701856 9.249187 1.198000
v 0.704091 9.172354 1.201871
v 1.450131 8.451321 -0.017650
v 0.743383 7.821618 -1.305228
v -1.265263 8.264509 -0.748149
v -1.228369 8.996739 0.691549
v 0.000000 9.312433 1.382382
v 1.235232 8.860537 0.695511
v 1.271922 8.132330 -0.751995
v -1.298590 8.355215 -0.604077
v -1.406450 8.676340 0.096513
v -0.929424 1.426214 -1.627457
v -1.848443 1.605011 -0.017650
v -0.927890 1.478878 1.589503
v 0.937899 1.134825 1.606838
v 1.886864 0.944608 -0.017651
v 0.938928 1.099436 -1.643922
v -0.000000 1.266429 -1.885792
v -1.604119 1.539126 -0.943788
v -1.602414 1.572937 0.907504
v 0.000000 1.331326 1.846715
v 1.631043 1.004728 0.924033
v 1.632646 0.972920 -0.960259
v 1.805847 0.966232 0.280017
v -1.148017 1.498670 1.367804
v 1.688330 0.961667 -0.754886
v -0.660536 1.379505 -1.702223
vt 0.083333 0.597571
vt 0.059125 0.595692
vt 1.000000 0.591145
vt 0.916667 0.584429
vt 0.833333 0.579341
vt 0.815133 0.578889
vt 0.750000 0.578203
vt 0.723672 0.579072
vt 0.666667 0.580620
vt 0.583333 0.585852
vt 0.500000 0.593755
vt 0.416667 0.599688
vt 0.389562 0.600484
vt 0.333333 0.603471
vt 0.250000 0.604761
vt 0.166667 0.602111
vt 0.916667 0.854763
vt 0.000000 0.851278
vt 0.083333 0.857915
vt 0.166667 0.872574
vt 0.182850 0.876222
vt 0.250000 0.887121
vt 0.263230 0.889136
vt 0.333333 0.902021
vt 0.416667 0.912173
vt 0.500000 0.914716
vt 0.583333 0.909083
vt 0.666667 0.896543
vt 0.750000 0.880086
vt 0.833333 0.867258
vt 1.000000 0.851278
vt 0.000000 0.591145
vn -0.1736 -0.9847 0.0150
vn 0.0497 0.8805 -0.4714
vn 0.7060 0.0561 -0.7060
vn 0.9644 0.0561 0.2584
vn 0.2584 0.0561 0.9644
vn -0.7060 0.0561 0.7060
vn -0.9644 0.0561 -0.2584
vn -0.7060 0.0561 -0.7060
vn 0.2584 0.0561 -0.9644
vn 0.9644 0.0561 -0.2584
vn 0.7060 0.0561 0.7060
vn -0.2584 0.0561 0.9644
vn -0.9644 0.0561 0.2584
vn -0.2584 0.0561 -0.9644
usemtl None
s off
f 15/1/1 30/2/1 21/3/1 20/4/1 26/5/1 29/6/1 19/7/1 27/8/1 25/9/1 18/10/1 24/11/1 17/12/1 28/13/1 23/14/1 16/15/1 22/16/1
f 7/17/2 1/18/2 2/19/2 8/20/2 13/21/2 3/22/2 14/23/2 9/24/2 4/25/2 10/26/2 5/27/2 11/28/2 6/29/2 12/30/2
f 26/5/3 20/4/3 7/17/3 12/30/3
f 25/9/4 27/8/4 19/7/4 6/29/4 11/28/4
f 24/11/5 18/10/5 5/27/5 10/26/5
f 23/14/6 28/13/6 17/12/6 4/25/6 9/24/6
f 22/16/7 16/15/7 3/22/7 13/21/7 8/20/7
f 15/1/8 22/16/8 8/20/8 2/19/8
f 20/4/9 21/3/9 1/31/9 7/17/9
f 19/7/10 29/6/10 26/5/10 12/30/10 6/29/10
f 18/10/11 25/9/11 11/28/11 5/27/11
f 17/12/12 24/11/12 10/26/12 4/25/12
f 16/15/13 23/14/13 9/24/13 14/23/13 3/22/13
f 21/32/14 30/2/14 15/1/14 2/19/14 1/18/14
